<?xml version="1.0" encoding="UTF-8"?>
<svg version="1.1" xmlns="http://www.w3.org/2000/svg" width="536" height="536">
<path d="M0 0 C176.88 0 353.76 0 536 0 C536 176.88 536 353.76 536 536 C359.12 536 182.24 536 0 536 C0 359.12 0 182.24 0 0 Z " fill="#FDFDFD" transform="translate(0,0)"/>
<path d="M0 0 C1.07693304 -0.00445784 2.15386608 -0.00891569 3.26343346 -0.01350862 C5.03713279 -0.01323207 5.03713279 -0.01323207 6.84666443 -0.01294994 C8.10343302 -0.01662663 9.36020161 -0.02030332 10.65505409 -0.02409142 C14.14593724 -0.03410202 17.63680319 -0.03782671 21.12769866 -0.04048073 C24.89204497 -0.04438666 28.6563777 -0.0539649 32.42071533 -0.0626936 C41.51373194 -0.08245142 50.60674966 -0.09252404 59.69978237 -0.10142139 C63.98387156 -0.10580602 68.26795952 -0.11117243 72.55204773 -0.11641026 C86.79740645 -0.13342301 101.0427644 -0.14791607 115.28813171 -0.155159 C118.98448182 -0.15706884 122.68083192 -0.15898918 126.37718201 -0.16094494 C127.29587224 -0.16142868 128.21456247 -0.16191242 129.1610918 -0.16241082 C144.03547992 -0.17070695 158.9097875 -0.19603661 173.78414047 -0.22852562 C189.06209432 -0.26162351 204.34000729 -0.27961029 219.61799717 -0.28280324 C228.19322261 -0.28496597 236.76833067 -0.29367974 245.34352112 -0.31926441 C252.64840737 -0.34100887 259.95314772 -0.34900352 267.25806266 -0.33929763 C270.98213119 -0.33476352 274.70589895 -0.33658672 278.42992592 -0.35605907 C282.47635647 -0.37703348 286.52212474 -0.36667141 290.56858826 -0.35352612 C291.7332087 -0.36449536 292.89782915 -0.37546461 294.09774113 -0.38676625 C307.22043664 -0.28419297 319.69545425 4.00792793 329.03977966 13.49359608 C335.57097673 21.26825581 339.82620729 29.48117217 339.84978199 39.77366352 C339.85423983 40.68128453 339.85869768 41.58890553 339.86329061 42.52403021 C339.86301406 44.0063524 339.86301406 44.0063524 339.86273193 45.51862049 C339.86640862 46.57544387 339.87008531 47.63226726 339.87387341 48.72111559 C339.88490113 52.26832754 339.88875258 55.81551018 339.89256287 59.3627367 C339.89882826 61.9039262 339.90547513 64.44511479 339.91247559 66.98630238 C339.93169484 74.6165297 339.94230313 82.24675188 339.95120338 89.87699723 C339.95559134 93.47457512 339.96095687 97.07215155 339.96619225 100.66972828 C339.98320255 112.63671278 339.99769491 124.60369638 340.00494099 136.57069111 C340.00685073 139.67422455 340.00877108 142.77775798 340.01072693 145.88129139 C340.01121067 146.65261369 340.01169441 147.42393598 340.01219281 148.21863168 C340.02048637 160.70290655 340.04581273 173.18708538 340.07830761 185.67131835 C340.11143273 198.50283214 340.12939471 211.33429722 340.13258523 224.16585398 C340.13474541 231.36450215 340.14342148 238.56301034 340.1690464 245.76161671 C340.19311374 252.53813059 340.19654499 259.31434982 340.18628502 266.09091282 C340.18579045 268.57202841 340.19208734 271.05315653 340.20584106 273.53423405 C340.30161507 291.84220831 339.62652575 305.85337739 326.94212341 320.13031483 C321.46022865 325.50812298 314.90327851 327.75470308 307.71556091 330.13422108 C306.72556091 330.46422108 305.73556091 330.79422108 304.71556091 331.13422108 C301.74832485 331.22591642 298.80498815 331.2601675 295.83787537 331.24774647 C294.47659515 331.24796551 294.47659515 331.24796551 293.08781433 331.24818897 C290.08479939 331.24749168 287.08184629 331.23970784 284.07884216 331.23187733 C281.99804722 331.2300125 279.91725184 331.2285889 277.8364563 331.22758961 C272.35705861 331.22376956 266.87768739 331.21394363 261.39830017 331.20288563 C255.80809385 331.1926605 250.21788326 331.18808962 244.62767029 331.1830492 C233.65695553 331.17232093 222.68626042 331.15525062 211.71556091 331.13422108 C211.72444336 331.88209385 211.73332581 332.62996662 211.74247742 333.4005022 C211.82316369 340.50429572 211.88379655 347.60792623 211.9228096 354.71205139 C211.94354212 358.36298585 211.97159082 362.01353664 212.01731873 365.66425037 C212.06129701 369.19804852 212.08480528 372.73148146 212.09506989 376.26553249 C212.10588272 378.24663958 212.13702225 380.22760303 212.16874695 382.2084856 C212.17202115 395.65002317 209.21595179 406.27820822 199.90306091 416.03265858 C192.98459476 422.64425728 184.17218095 426.24637834 174.6029129 426.27123547 C173.56429721 426.27631001 172.52568152 426.28138455 171.45559263 426.28661287 C169.74609395 426.2873595 169.74609395 426.2873595 168.00205994 426.28812122 C166.79021042 426.29250348 165.57836091 426.29688573 164.32978868 426.30140078 C160.96431282 426.31245944 157.59888338 426.31901138 154.23339605 426.32358193 C150.60401821 426.32954362 146.97465745 426.34115215 143.34529114 426.35187244 C134.5785699 426.37638503 125.81184302 426.39102273 117.04509807 426.40393251 C114.56801171 426.40764553 112.09092591 426.41161869 109.6138401 426.41568518 C94.22445102 426.44092481 78.83506103 426.46297332 63.44565582 426.47541332 C59.8816528 426.47834292 56.3176498 426.4813046 52.75364685 426.48431873 C51.86785338 426.48506478 50.98205991 426.48581083 50.06942421 426.48657949 C35.72850236 426.49922602 21.38770468 426.53244015 7.04684085 426.57412057 C-7.68418621 426.61658311 -22.41514977 426.64011341 -37.14623785 426.64533389 C-45.41409483 426.6487433 -53.68175781 426.6604428 -61.94955444 426.69343662 C-68.99278808 426.72149787 -76.03578794 426.73240998 -83.07907313 426.72124116 C-86.66954689 426.71606976 -90.25953157 426.71884097 -93.84993362 426.7437067 C-97.75184129 426.77050285 -101.65308995 426.75808685 -105.55506897 426.74222279 C-106.67688899 426.75610487 -107.798709 426.76998696 -108.95452356 426.78428972 C-119.71568131 426.67691008 -128.86144955 423.32469656 -136.67506409 415.81781483 C-144.62112827 407.50530593 -148.60434704 398.00723461 -148.55186462 386.42580128 C-148.55639574 385.68099701 -148.56092685 384.93619274 -148.56559527 384.16881865 C-148.57818861 381.68952981 -148.57662219 379.21046206 -148.57496643 376.73114491 C-148.58095495 374.94664702 -148.58776124 373.16215172 -148.59532166 371.3776598 C-148.61295833 366.54063208 -148.61767612 361.70367516 -148.61895323 356.86661839 C-148.62037698 353.84041662 -148.62465088 350.81423272 -148.62994766 347.78803539 C-148.64844193 337.21844183 -148.65661924 326.64889864 -148.65504456 316.07928944 C-148.6538441 306.24713388 -148.67492916 296.41519818 -148.70653188 286.58309823 C-148.73274061 278.12592887 -148.74340989 269.66883109 -148.74213374 261.21162146 C-148.74162535 256.16762857 -148.74723976 251.12383104 -148.76848984 246.07987881 C-148.78794917 241.33143838 -148.78794435 236.5833781 -148.77345657 231.83492374 C-148.77137673 230.10000327 -148.7760198 228.36505853 -148.78817749 226.63017941 C-148.88135353 212.40353334 -147.27883607 201.02975221 -137.28443909 190.13422108 C-136.67600159 189.46906483 -136.06756409 188.80390858 -135.44068909 188.11859608 C-131.03506595 183.53241462 -126.22498735 179.53181242 -121.27272034 175.55218983 C-118.06838663 172.95940216 -114.92265413 170.30617643 -111.78443909 167.63422108 C-107.81572478 164.26101786 -103.82425747 160.92244535 -99.78443909 157.63422108 C-98.9040094 156.91363514 -98.02357971 156.1930492 -97.11647034 155.45062733 C-95.62726762 154.23256221 -94.13737973 153.01530622 -92.64137268 151.8056078 C-86.03237441 146.44974913 -79.95329301 141.33468789 -75.28443909 134.13422108 C-63.0609792 115.71397736 -48.77804288 100.95660862 -29.28443909 90.13422108 C-28.67229553 89.79261951 -28.06015198 89.45101795 -27.42945862 89.09906483 C-17.4676181 83.61334722 -7.37235705 79.69335325 3.71556091 77.13422108 C4.50623962 76.94875721 5.29691833 76.76329334 6.11155701 76.57220936 C14.27316107 74.86432096 22.41252706 74.73906951 30.71556091 74.75922108 C31.44211884 74.75876789 32.16867676 74.7583147 32.91725159 74.75784779 C44.61125571 74.77924269 55.45440689 75.88765433 66.71556091 79.13422108 C68.10001404 79.45713123 68.10001404 79.45713123 69.51243591 79.78656483 C87.14496471 84.19469703 104.34079448 96.30349944 117.71556091 108.13422108 C118.44903748 108.77230701 119.18251404 109.41039295 119.93821716 110.06781483 C131.22553814 120.57669987 141.04535139 134.76281729 146.71556091 149.13422108 C146.71556091 150.12422108 146.71556091 151.11422108 146.71556091 152.13422108 C147.36782654 151.98984608 148.02009216 151.84547108 148.69212341 151.69672108 C158.72979579 149.56482606 158.72979579 149.56482606 162.71556091 150.13422108 C165.15306091 151.75922108 165.15306091 151.75922108 166.71556091 154.13422108 C166.35137435 158.68275533 164.96335646 162.06249152 162.83665466 166.06390858 C162.24860046 167.18225086 161.66054626 168.30059315 161.05467224 169.45282459 C160.42101938 170.6384064 159.78714506 171.82386988 159.15306091 173.00922108 C158.19036895 174.82835267 157.23034855 176.64887461 156.27072144 178.46962452 C155.63685438 179.67217159 155.00206334 180.87423209 154.36633301 182.07579517 C151.48505133 187.53349587 148.74158813 193.05553294 146.11375427 198.63959217 C144.57272058 201.81933384 143.74397631 203.11527748 140.71556091 205.13422108 C136.62408239 204.86325732 134.62568055 203.55267059 131.75144958 200.71942616 C131.01105942 199.99810001 130.27066925 199.27677387 129.50784302 198.53358936 C128.72431961 197.74824314 127.9407962 196.96289692 127.13352966 196.15375233 C126.31935074 195.34814365 125.50517181 194.54253498 124.6663208 193.71251392 C122.94920532 192.00687824 121.23729918 190.29598442 119.53025818 188.580266 C116.9127184 185.9564019 114.26967097 183.36029857 111.62376404 180.76508045 C109.95873226 179.10459425 108.29526643 177.44253602 106.63352966 175.77875233 C105.8398851 175.00352726 105.04624054 174.22830219 104.22854614 173.42958546 C98.85771292 167.96641871 98.85771292 167.96641871 98.13084412 163.71112537 C98.71556091 161.13422108 98.71556091 161.13422108 100.15306091 159.25922108 C103.96700642 157.58480597 107.61135576 157.89744001 111.71556091 158.13422108 C110.32489497 155.92248657 108.92825412 153.71491371 107.52806091 151.50922108 C107.14069763 150.89176014 106.75333435 150.2742992 106.35423279 149.63812733 C94.87468162 131.61238583 75.44335813 119.68854251 54.87913513 114.57318592 C50.19828747 113.62349464 45.41859118 113.21005862 40.65379333 112.94134998 C37.16311161 112.69265999 35.04051587 112.3741646 32.19212341 110.27093983 C30.71556091 108.13422108 30.71556091 108.13422108 30.84056091 105.00922108 C31.71556091 102.13422108 31.71556091 102.13422108 33.71556091 100.13422108 C60.8851706 99.31796671 85.8091281 111.63665767 105.38743591 129.58343983 C113.94135553 137.8392683 124.95558108 149.99243465 125.98509216 162.37640858 C125.71556091 165.13422108 125.71556091 165.13422108 123.96556091 167.00922108 C121.71556091 168.13422108 121.71556091 168.13422108 117.71556091 168.13422108 C121.92629806 173.17524442 126.39457203 177.92153494 131.02806091 182.57172108 C131.55560974 183.10378162 132.08315857 183.63584217 132.62669373 184.18402576 C135.40655523 187.00898442 135.40655523 187.00898442 138.71556091 189.13422108 C138.89236389 188.04717884 138.89236389 188.04717884 139.07273865 186.93817616 C139.72715532 184.08364692 140.6738184 181.87434879 142.00071716 179.27093983 C142.67264099 177.94159412 142.67264099 177.94159412 143.35813904 176.58539295 C144.06100037 175.21737537 144.06100037 175.21737537 144.77806091 173.82172108 C145.25050232 172.89037342 145.72294373 171.95902576 146.20970154 170.99945545 C147.37293735 168.70823339 148.54169223 166.42000867 149.71556091 164.13422108 C149.1006781 164.18062733 148.48579529 164.22703358 147.85227966 164.27484608 C141.22245594 164.57091476 141.22245594 164.57091476 138.79759216 162.48187733 C137.59103261 159.86403511 136.44490851 157.26047553 135.40306091 154.57172108 C124.29416555 127.3763541 103.76841656 107.53885753 77.03196716 95.85297108 C70.11668229 93.00039634 62.96216483 90.95315308 55.71556091 89.13422108 C55.06240906 88.94948231 54.4092572 88.76474354 53.73631287 88.57440662 C46.54569475 86.70154431 39.29483485 86.69327181 31.90306091 86.69672108 C31.21847809 86.69598591 30.53389526 86.69525074 29.8285675 86.69449329 C2.8858308 86.77028655 -21.80809136 96.59248679 -42.28443909 114.13422108 C-43.0952594 114.79937733 -43.90607971 115.46453358 -44.74147034 116.14984608 C-67.02837896 135.10249278 -79.90039312 163.72191311 -82.50758362 192.60638905 C-83.40154223 206.73317703 -83.00246965 225.84654071 -75.28443909 238.13422108 C-72.98664026 240.65431302 -72.98664026 240.65431302 -70.28443909 242.94672108 C-69.3008844 243.81168201 -68.31732971 244.67664295 -67.30397034 245.56781483 C-63.65403224 248.67002612 -59.96054964 251.71099914 -56.23365784 254.72015858 C-52.87075569 257.47283875 -49.57511231 260.29600428 -46.28443909 263.13422108 C-42.18221288 266.6704131 -38.05641619 270.16285775 -33.84693909 273.57172108 C-29.48277743 277.11680254 -25.21464708 280.75827968 -20.97193909 284.44672108 C-20.33594788 284.99948719 -19.69995667 285.5522533 -19.04469299 286.12176991 C-16.52033287 288.31726785 -13.99688345 290.51381039 -11.47389221 292.71088123 C-5.0097449 298.33040377 1.51246392 303.86315076 8.21556091 309.19672108 C8.77896179 309.64998768 9.34236267 310.10325428 9.9228363 310.57025623 C19.20303103 317.86648571 27.13535325 319.00085267 38.71556091 318.13422108 C46.81931633 316.35230287 52.59204155 311.47961367 58.71556091 306.13422108 C59.90791325 305.10255949 61.10064628 304.07133778 62.29368591 303.04047108 C64.23746448 301.35814949 66.17933827 299.67380231 68.11668396 297.98407459 C71.76696464 294.80266261 75.45094641 291.68069749 79.21556091 288.63422108 C83.63224823 285.05880753 87.93339987 281.36826551 92.21556091 277.63422108 C97.34783748 273.15887591 102.54741365 268.79414981 107.84056091 264.50922108 C111.35104093 261.60925933 114.78379892 258.62654228 118.21556091 255.63422108 C134.40438257 241.52509237 134.40438257 241.52509237 138.88352966 238.82953358 C141.61013317 236.30640794 141.96948324 233.70637152 142.84056091 230.13422108 C143.00813904 229.4679369 143.17571716 228.80165272 143.34837341 228.11517811 C144.53463112 223.28558009 145.41285589 218.43842889 146.02806091 213.50140858 C146.92980493 210.39653996 148.67139257 208.63060652 150.71556091 206.13422108 C152.08620559 203.75398624 153.27753075 201.29720882 154.46556091 198.82172108 C154.78138123 198.1765453 155.09720154 197.53136951 155.42259216 196.86664295 C156.19247799 195.29187649 156.95480982 193.71342068 157.71556091 192.13422108 C158.04556091 192.13422108 158.37556091 192.13422108 158.71556091 192.13422108 C158.81612073 202.19020308 158.81501984 212.1212916 157.71556091 222.13422108 C164.4934693 216.6565645 171.16686922 211.07513893 177.76683044 205.38519764 C181.38698708 202.26484266 185.03617979 199.18460058 188.71556091 196.13422108 C184.2343808 190.10780644 178.56437799 185.78591185 172.71556091 181.13422108 C171.48271752 180.11783111 170.25264893 179.09804246 169.02806091 178.07172108 C168.26493591 177.43234608 167.50181091 176.79297108 166.71556091 176.13422108 C167.82496811 172.64751274 168.97893757 169.35937871 170.71556091 166.13422108 C175.81990915 167.66357732 179.09657902 170.82991484 182.96556091 174.32172108 C187.13499536 178.02715335 191.27372074 181.64711925 195.77806091 184.94672108 C204.07883374 191.3127273 207.48464106 199.44146152 210.71556091 209.13422108 C210.80467708 210.65706014 210.83753909 212.1835305 210.83581543 213.70897388 C210.83787743 215.11611652 210.83787743 215.11611652 210.83998108 216.55168629 C210.8363858 217.57883244 210.83279053 218.60597858 210.8290863 219.66425037 C210.82923233 220.74733479 210.82937836 221.8304192 210.82952881 222.94632435 C210.82883099 226.5337164 210.82104463 230.12105682 210.81321716 233.70843983 C210.81135252 236.19279928 210.80992884 238.6771591 210.80892944 241.16151905 C210.80549871 247.03693711 210.79761362 252.91233604 210.78757995 258.78774625 C210.77530825 266.13305257 210.76993553 273.47835997 210.76438904 280.8236742 C210.75365813 293.92719928 210.73677776 307.030709 210.71556091 320.13422108 C222.52108097 320.09607161 234.32628618 320.03657537 246.13155842 319.95031834 C251.61407935 319.91091968 257.09644149 319.87869387 262.5790863 319.86322498 C267.87665705 319.84800829 273.17379102 319.81347388 278.47116661 319.76591206 C280.48557411 319.75114986 282.50004398 319.74318305 284.51450539 319.74233723 C303.83600741 319.76949771 303.83600741 319.76949771 320.06321716 310.06000233 C322.65955263 307.03401324 324.31332574 303.84806177 325.71556091 300.13422108 C326.05609182 299.29452463 326.39662273 298.45482819 326.74747276 297.58968639 C327.9697915 293.22677791 328.00406231 289.26471849 327.99403381 284.75693226 C328.00272242 283.35266753 328.00272242 283.35266753 328.01158655 281.92003381 C328.02857151 278.78778123 328.03146178 275.65567613 328.03440857 272.52338123 C328.04370777 270.2762157 328.05387643 268.02905362 328.06484985 265.78189564 C328.09216474 259.68327921 328.10730375 253.58468591 328.12027788 247.48602438 C328.13590184 241.11184282 328.16269443 234.73770851 328.18830872 228.36356068 C328.22979123 217.66554493 328.26438195 206.9675292 328.29368591 196.26947498 C328.32388406 185.25187796 328.35824013 174.23430681 328.3981781 163.21674061 C328.40063965 162.53728196 328.4031012 161.85782331 328.40563734 161.157775 C328.41801219 157.74903031 328.43046867 154.34028592 328.44296575 150.93154168 C328.54648749 122.66580413 328.63555889 94.40003424 328.71556091 66.13422108 C290.08989403 66.08845668 251.46423123 66.0532085 212.83854272 66.03209042 C208.27980786 66.02958896 203.72107304 66.02700032 199.16233826 66.0243578 C197.80097871 66.02357086 197.80097871 66.02357086 196.41211696 66.02276804 C181.7112809 66.01406226 167.01046045 65.99829133 152.30963366 65.97991548 C137.22846016 65.96122124 122.14729486 65.95010536 107.06611025 65.94604409 C97.75806949 65.94329804 88.45007287 65.93462066 79.14204569 65.91838814 C72.76167642 65.90782714 66.38133002 65.90461845 60.00095265 65.90721832 C56.31824446 65.90850099 52.63561351 65.9065162 48.95291901 65.89581013 C44.96128518 65.88429058 40.96975229 65.88823994 36.97810364 65.89371204 C35.23004679 65.88497352 35.23004679 65.88497352 33.44667566 65.87605846 C28.12232283 65.89585687 23.69696272 66.02352566 18.71556091 68.13422108 C16.29026794 68.54486561 16.29026794 68.54486561 13.97337341 68.76703358 C13.13548279 68.85082264 12.29759216 68.9346117 11.43431091 69.02093983 C10.57837341 69.09957264 9.72243591 69.17820545 8.84056091 69.25922108 C7.96142029 69.34558826 7.08227966 69.43195545 6.17649841 69.52093983 C4.02344983 69.73156414 1.86957842 69.93374816 -0.28443909 70.13422108 C10.59248185 56.39495253 10.59248185 56.39495253 18.68896508 54.40250015 C22.08381492 54.12979309 25.39557379 54.10543267 28.80079651 54.17218494 C30.08749265 54.16534955 31.37418878 54.15851415 32.69987571 54.15147161 C36.24670928 54.13369235 39.79158819 54.16542309 43.33817291 54.20569611 C47.17170324 54.24039642 51.00513234 54.22854218 54.83877563 54.22247791 C61.47250909 54.21829258 68.10561078 54.24329134 74.73918533 54.28838062 C84.32998607 54.35352796 93.92048279 54.37424541 103.51148079 54.38428456 C119.07382109 54.40177323 134.63582502 54.45495704 150.19798279 54.53070545 C165.31092145 54.60419059 180.42376861 54.66079193 195.53684998 54.69476795 C196.46915236 54.69686974 197.40145474 54.69897153 198.36200871 54.70113701 C203.03931609 54.71157766 207.71662412 54.72168724 212.39393258 54.73163223 C251.16804414 54.81450256 289.94178028 54.95535197 328.71556091 55.13422108 C328.59283304 52.0750457 328.45989153 49.01688988 328.32102966 45.95843983 C328.28747375 45.09569447 328.25391785 44.2329491 328.21934509 43.34405994 C327.92955542 37.20552043 327.15328761 32.34590289 323.71556091 27.13422108 C323.29274841 26.43168201 322.86993591 25.72914295 322.43431091 25.00531483 C317.93093885 18.21272863 311.71924666 14.72695118 303.94235373 12.56177115 C299.15496459 11.64257985 294.26393847 11.85377027 289.40678406 11.86679554 C288.16716439 11.86226443 286.92754472 11.85773331 285.65036082 11.85306489 C282.22126487 11.8426134 278.79237908 11.84109183 275.3632822 11.84345365 C271.66035023 11.84386257 267.95744929 11.83281548 264.25453186 11.82333851 C257.00401216 11.8067436 249.75352499 11.80122964 242.50298789 11.80011375 C236.60745852 11.79916253 230.71193986 11.79504852 224.81641388 11.7887125 C208.09087914 11.77110393 191.36537004 11.76187299 174.63982597 11.76337345 C173.73862709 11.76345336 172.83742822 11.76353327 171.90892029 11.76361561 C171.00661732 11.76369737 170.10431436 11.76377913 169.17466888 11.76386337 C154.55521798 11.76467608 139.93587016 11.74554118 125.31644908 11.71733887 C110.29491217 11.68859019 95.27342549 11.67479968 80.25186038 11.67652643 C71.82259438 11.67718966 63.39343643 11.67172667 54.96419525 11.65017033 C47.7867046 11.63193236 40.60937098 11.62763257 33.43186715 11.64118917 C29.77271433 11.6477058 26.11386254 11.64788377 22.45473862 11.63048267 C18.48044496 11.61177787 14.50658758 11.6243407 10.53227234 11.63974476 C9.38624015 11.62945763 8.24020796 11.61917051 7.05944753 11.60857165 C-3.79564691 11.70131415 -12.49937926 14.40735255 -20.40553284 21.97406483 C-24.83752329 27.06947173 -27.36291371 33.03008331 -27.48976135 39.78925037 C-27.50970657 40.72999912 -27.52965179 41.67074787 -27.55020142 42.64000416 C-27.56691391 43.65258793 -27.5836264 44.6651717 -27.60084534 45.70843983 C-27.63201698 47.26689373 -27.63201698 47.26689373 -27.66381836 48.85683155 C-27.72924564 52.1783936 -27.78816729 55.50003523 -27.84693909 58.82172108 C-27.89013078 61.07238037 -27.93374528 63.3230316 -27.97779846 65.5736742 C-28.08492007 71.09377218 -28.18669925 76.61394945 -28.28443909 82.13422108 C-32.26632626 83.8518979 -36.24923312 85.54459448 -40.28443909 87.13422108 C-40.38674981 80.25162071 -40.45628257 73.36921996 -40.50416565 66.48602772 C-40.5241495 64.14969015 -40.55134597 61.81340175 -40.5861969 59.47723866 C-41.0374785 28.42508245 -41.0374785 28.42508245 -30.28443909 15.13422108 C-29.56707581 14.21383045 -29.56707581 14.21383045 -28.83522034 13.27484608 C-21.96629779 5.45430957 -10.38133035 0.01995148 0 0 Z " fill="#080808" transform="translate(173.28443908691406,59.86577892303467)"/>
<path d="M0 0 C5.78414119 4.07707373 10.96090051 8.64477043 16.16015625 13.4375 C19.66932578 16.60395834 23.32054087 19.56152876 26.99609375 22.53125 C32.4630247 27.02422836 37.76675791 31.70746063 43.10351562 36.35351562 C46.07855189 38.93637409 49.0694406 41.50056914 52.0625 44.0625 C52.92258667 44.79883667 52.92258667 44.79883667 53.80004883 45.55004883 C54.95530518 46.53885203 56.11065976 47.52754049 57.26611328 48.51611328 C60.1789405 51.00895527 63.08931198 53.504661 66 56 C66.57685547 56.49435547 67.15371094 56.98871094 67.74804688 57.49804688 C70.67818993 60.00913036 73.60746996 62.52120868 76.53515625 65.03515625 C82.69832524 70.32566414 88.87514627 75.59878224 95.08374023 80.8359375 C98.00797579 83.30523232 100.92039983 85.78732004 103.8203125 88.28515625 C104.45517578 88.83171875 105.09003906 89.37828125 105.74414062 89.94140625 C106.97066501 90.99853526 108.19598502 92.05706374 109.41992188 93.1171875 C111.87999507 95.23725058 114.29382906 97.19588604 117 99 C115.78889769 102.63330692 115.01345441 102.91028813 111.71315765 104.64739704 C105.63852226 107.51419232 100.22120962 107.70366972 93.58947754 107.64164734 C92.3751739 107.65015286 91.16087026 107.65865838 89.90976954 107.66742164 C86.56491024 107.6857579 83.22145575 107.68190701 79.87666631 107.66828239 C76.2596541 107.6589864 72.64277677 107.67854653 69.02580261 107.69425964 C61.95041989 107.72028904 54.87529177 107.71927575 47.79987943 107.70822146 C42.04741437 107.69964846 36.29502274 107.70050528 30.54255676 107.70801735 C29.31249652 107.70959968 29.31249652 107.70959968 28.05758658 107.71121398 C26.39147021 107.713385 24.72535387 107.71557177 23.05923754 107.71777413 C7.45156158 107.73718446 -8.15597177 107.72522447 -23.76363605 107.70298818 C-37.14346957 107.68473679 -50.52302713 107.69564542 -63.90283203 107.72729492 C-79.45627449 107.76408423 -95.00954467 107.78107014 -110.56303072 107.76788265 C-112.22287271 107.7665416 -113.88271472 107.76523262 -115.54255676 107.76395607 C-116.76743239 107.76301007 -116.76743239 107.76301007 -118.01705298 107.76204496 C-123.75980894 107.75902212 -129.50243454 107.77025836 -135.24516296 107.78720665 C-142.24776054 107.80756264 -149.24996877 107.80661481 -156.25254619 107.77857425 C-159.82260919 107.76483171 -163.39199323 107.76055099 -166.96203041 107.78252411 C-170.83820339 107.80606568 -174.71331418 107.78279826 -178.58947754 107.75517273 C-179.70913957 107.76923918 -180.8288016 107.78330563 -181.98239279 107.79779834 C-189.77715954 107.68604375 -194.7306234 105.60378315 -201 101 C-199.79304806 97.37914417 -198.56707961 96.6530432 -195.5625 94.375 C-191.93350255 91.55531022 -188.45301841 88.66504168 -185.0625 85.5625 C-180.81813747 81.69438734 -176.43381654 78.05160454 -171.97265625 74.4375 C-166.83990049 70.22877517 -161.82654106 65.88093473 -156.79833984 61.54833984 C-153.8699783 59.02707065 -150.93470651 56.51387757 -148 54 C-146.83329885 53.00004023 -145.66663221 52.00004019 -144.5 51 C-142.16666667 49 -139.83333333 47 -137.5 45 C-136.9222583 44.5047583 -136.3445166 44.0095166 -135.74926758 43.49926758 C-134.58518023 42.50154805 -133.42095544 41.50398886 -132.2565918 40.5065918 C-129.29930113 37.97301257 -126.34461631 35.43649863 -123.39453125 32.89453125 C-118.06164678 28.30393447 -112.71814055 23.74238602 -107.25 19.3125 C-103.63908132 16.38228469 -100.13614698 13.36971493 -96.6875 10.25 C-95.87410156 9.51523437 -95.06070313 8.78046875 -94.22265625 8.0234375 C-92.86674755 6.78906016 -91.51833279 5.54630056 -90.18359375 4.2890625 C-88.625 2.875 -88.625 2.875 -86 1 C-81.98069266 1.24959296 -79.5303927 3.79740647 -76.5625 6.3125 C-75.63566406 7.09238281 -74.70882812 7.87226563 -73.75390625 8.67578125 C-72.84511719 9.44277344 -71.93632812 10.20976562 -71 11 C-68.12217041 13.38954919 -65.42807331 15.48695 -62.0625 17.125 C-61.43472656 17.43695313 -60.80695313 17.74890625 -60.16015625 18.0703125 C-50.14743735 22.37958392 -37.33931356 22.95155481 -26.9375 19.375 C-25.26697485 18.63686098 -23.61915525 17.84489038 -22 17 C-21.12988281 16.55269531 -20.25976562 16.10539062 -19.36328125 15.64453125 C-14.388466 12.87083007 -10.42436282 9.76558088 -6.5390625 5.61328125 C-4.53311202 3.51059712 -2.31311624 1.75236079 0 0 Z " fill="#FDFDFD" transform="translate(247,368)"/>
<path d="M0 0 C3.39743025 1.51866698 6.01618284 3.50279002 8.875 5.875 C9.84179688 6.67679687 10.80859375 7.47859375 11.8046875 8.3046875 C15.83280942 11.68951609 19.82017194 15.12189456 23.80615234 18.55615234 C27.33128095 21.58828291 30.88959334 24.5691993 34.5 27.5 C39.34231567 31.43082095 44.07443328 35.4777268 48.79760742 39.54980469 C52.42648156 42.67152409 56.09459327 45.73407566 59.8125 48.75 C63.88309883 52.0540189 67.80915954 55.4797399 71.70703125 58.984375 C75.0529455 61.92558753 78.52117727 64.70948645 81.98046875 67.515625 C85.96826821 70.79666052 89.87523904 74.1672375 93.78540039 77.54003906 C98.35285119 81.47030306 102.9953496 85.2911012 107.6953125 89.0625 C109.92584741 90.93766155 111.97340393 92.90802986 114 95 C112.42426697 99.28276157 109.16189519 101.68524406 105.75 104.5 C104.47767237 105.56878164 103.20554255 106.63779879 101.93359375 107.70703125 C100.95495361 108.52421631 100.95495361 108.52421631 99.95654297 109.35791016 C97.4753779 111.4403055 95.02250191 113.55429357 92.5703125 115.6706543 C87.84957353 119.74425863 83.09544627 123.76207517 78.25 127.6875 C73.86848205 131.24267904 69.68289319 134.96769537 65.51171875 138.765625 C62.99848768 141.00134533 60.42688521 143.13377682 57.8125 145.25 C51.37288007 150.46518515 45.14544597 155.91331752 38.89648438 161.35351562 C35.92144784 163.93637432 32.93053133 166.50053597 29.9375 169.0625 C29.36845947 169.54976562 28.79941895 170.03703125 28.21313477 170.5390625 C26.47571465 172.02638265 24.73791151 173.51325407 23 175 C11.95223868 184.44480353 11.95223868 184.44480353 1 194 C-1.91264631 189.63103054 -2.14487838 186.89144679 -2.13371277 181.76309204 C-2.13597833 181.00874827 -2.13824388 180.25440449 -2.14057809 179.47720182 C-2.14693499 176.93612051 -2.14608765 174.39509231 -2.14526367 171.85400391 C-2.14825412 170.03756135 -2.15165639 168.22111942 -2.15544128 166.40467834 C-2.1642974 161.46046762 -2.16662008 156.51627418 -2.16725707 151.57205629 C-2.16820496 147.44917154 -2.17188189 143.32629084 -2.17542917 139.20340765 C-2.18357996 129.47837645 -2.18601284 119.75335453 -2.18530273 110.02832031 C-2.18470187 99.98657355 -2.19525406 89.9448805 -2.2110464 79.90314734 C-2.22410961 71.29079898 -2.22948714 62.67846821 -2.22884732 54.06611001 C-2.22859196 48.91839931 -2.23146399 43.7707363 -2.24202538 38.62303543 C-2.2516858 33.78203054 -2.25179969 28.94111914 -2.24450874 24.10011101 C-2.24346032 22.32152483 -2.24584102 20.54293289 -2.2518692 18.76435661 C-2.25955579 16.33975187 -2.25496656 13.91547268 -2.24723816 11.49087524 C-2.25238172 10.78406541 -2.25752529 10.07725559 -2.26282471 9.34902728 C-2.23726518 5.72996736 -1.97935282 3.07959998 0 0 Z " fill="#FDFDFD" transform="translate(39,265)"/>
<path d="M0 0 C0.66 0 1.32 0 2 0 C3.80228605 4.62013464 4.28563279 8.72972672 4.25396729 13.63526917 C4.25708727 14.38415797 4.26020725 15.13304677 4.26342177 15.90462917 C4.27137206 18.40337878 4.26508982 20.90188353 4.25878906 23.40063477 C4.26150022 25.19634137 4.26506186 26.99204686 4.26940918 28.78775024 C4.27851992 33.65743785 4.2749945 38.52704063 4.26865101 43.39672971 C4.26358502 48.49397589 4.26828406 53.59121484 4.27142334 58.6884613 C4.2750609 67.24699202 4.27026904 75.8054882 4.26074219 84.36401367 C4.24985457 94.25927609 4.2533863 104.15445611 4.264395 114.04971653 C4.2734697 122.54666778 4.27475236 131.04359422 4.26951766 139.54054874 C4.26639942 144.61500871 4.2659847 149.68942993 4.27259064 154.76388741 C4.27836623 159.53355011 4.27436325 164.3031065 4.26280212 169.07275772 C4.26015684 170.8235106 4.26091839 172.57427242 4.26532745 174.32502174 C4.27078943 176.71404026 4.26394097 179.10271771 4.25396729 181.49171448 C4.25842873 182.18510109 4.26289017 182.8784877 4.26748681 183.59288603 C4.23584557 187.49816997 3.70636137 190.47894759 2 194 C-3.77575232 189.92883934 -8.94682293 185.36994343 -14.13671875 180.58203125 C-17.778043 177.29838141 -21.56874714 174.22778206 -25.3828125 171.1484375 C-27.81235488 169.15403704 -30.16433445 167.10293019 -32.5 165 C-35.63941848 162.17674204 -38.84365436 159.46951881 -42.125 156.8125 C-48.56311007 151.58489809 -54.80595635 146.14301728 -61.05615234 140.69384766 C-83.13577676 121.30412916 -83.13577676 121.30412916 -105.90234375 102.73828125 C-106.82144531 102.02027344 -107.74054688 101.30226563 -108.6875 100.5625 C-109.51636719 99.92441406 -110.34523438 99.28632813 -111.19921875 98.62890625 C-112.09060547 97.82259766 -112.09060547 97.82259766 -113 97 C-113 96.34 -113 95.68 -113 95 C-111.51261765 93.64617851 -109.95569449 92.36860114 -108.375 91.125 C-103.83922833 87.49871468 -99.39340291 83.79731913 -95 80 C-90.01128992 75.69948092 -84.95776132 71.49512389 -79.84375 67.34375 C-75.90843967 64.10036237 -72.05180698 60.76853203 -68.18920898 57.43920898 C-64.68764698 54.42754991 -61.15213443 51.4694105 -57.5625 48.5625 C-53.12760683 44.96363971 -48.80432214 41.25267936 -44.5 37.5 C-39.344201 33.00496923 -34.12489333 28.61376949 -28.80859375 24.30859375 C-24.89203538 21.08928082 -21.05955623 17.77542107 -17.21972656 14.46533203 C-12.54614677 10.44553556 -7.80162223 6.52540195 -3.01171875 2.64453125 C-1.12373351 1.15704175 -1.12373351 1.15704175 0 0 Z " fill="#FDFDFD" transform="translate(369,265)"/>
<path d="M0 0 C10.55656853 9.03706245 17.14997952 20.28693335 20.140625 33.89453125 C20.96914891 49.82768343 19.56786464 64.91538102 9.4765625 78.0625 C3.61032482 84.34392802 -4.51777344 88.337034 -13.078125 89.23046875 C-24.26610483 89.36365899 -24.26610483 89.36365899 -28.859375 84.89453125 C-31.01526693 81.85668352 -30.91943106 79.53993391 -30.859375 75.89453125 C-31.3440625 76.34183594 -31.82875 76.78914063 -32.328125 77.25 C-40.71270676 84.81224778 -47.25114942 89.31710722 -58.78515625 89.1640625 C-64.21129284 88.68832753 -67.85154221 87.00096297 -71.609375 83.05859375 C-78.64411399 74.23134916 -78.63466206 64.70372053 -77.859375 53.89453125 C-76.24243523 42.67884902 -68.5145387 32.88404294 -59.859375 25.89453125 C-49.07567571 19.23101896 -37.91680104 17.03283181 -25.4609375 19.79296875 C-21.56628637 20.7331602 -17.70962544 21.7873989 -13.859375 22.89453125 C-12.69876498 26.38258442 -13.00504901 29.02064691 -13.6015625 32.62109375 C-13.78074219 33.73613281 -13.95992188 34.85117188 -14.14453125 36 C-14.33917969 37.16144531 -14.53382813 38.32289063 -14.734375 39.51953125 C-17.17283295 54.09609133 -17.17283295 54.09609133 -17.984375 68.83203125 C-17.98695313 69.72792969 -17.98953125 70.62382812 -17.9921875 71.546875 C-17.95353653 74.04894559 -17.95353653 74.04894559 -16.859375 76.89453125 C-9.35034737 75.34093933 -4.3143896 73.21976633 0.328125 66.83203125 C6.46949963 56.95102693 7.69256502 45.52490302 5.390625 34.20703125 C4.978125 33.11390625 4.565625 32.02078125 4.140625 30.89453125 C3.88410156 30.12753906 3.62757813 29.36054688 3.36328125 28.5703125 C-0.02536482 19.07337738 -5.89529313 10.81906667 -14.859375 5.89453125 C-19.46507263 4.00619522 -24.11567525 2.40745201 -28.859375 0.89453125 C-29.849375 0.56453125 -30.839375 0.23453125 -31.859375 -0.10546875 C-48.75756801 -1.1236681 -64.01932776 1.87136947 -77.234375 13.20703125 C-89.510354 24.97232953 -94.720231 39.58280465 -95.09228516 56.33813477 C-95.19685066 70.06758598 -92.27737836 83.51840207 -82.546875 93.89453125 C-67.69487803 106.96824034 -50.98264081 108.15260621 -31.98828125 107.19580078 C-26.48667845 106.66607404 -21.74090746 105.14199187 -16.6796875 102.98828125 C-13.7850118 101.86569234 -11.92523804 101.42450347 -8.859375 101.89453125 C-6.18010159 105.91344137 -6.70336252 108.13615048 -6.859375 112.89453125 C-24.48705963 121.66385921 -45.98884824 124.00888048 -64.94140625 118.28125 C-76.4571349 114.3943655 -86.52370765 108.86426606 -94.859375 99.89453125 C-95.50261719 99.20875 -96.14585937 98.52296875 -96.80859375 97.81640625 C-108.40043728 84.23810797 -110.86833667 67.42112305 -110.04589844 50.23828125 C-108.5239522 31.11434944 -98.31006036 15.49551911 -84.6484375 2.84765625 C-61.16958147 -16.8780741 -24.70828742 -18.19367066 0 0 Z " fill="#070707" transform="translate(247.859375,214.10546875)"/>
<path d="M0 0 C1.01147234 3.84075659 0.92319275 6.31500803 -0.1875 10.11328125 C-0.47077148 11.10271729 -0.75404297 12.09215332 -1.04589844 13.11157227 C-1.51817871 14.69603149 -1.51817871 14.69603149 -2 16.3125 C-2.47614746 17.95593384 -2.47614746 17.95593384 -2.96191406 19.63256836 C-3.62933894 21.93156759 -4.30163607 24.2291573 -4.97851562 26.52539062 C-5.97466778 29.9138317 -6.9513439 33.30726669 -7.921875 36.703125 C-8.53072493 38.82306754 -9.14008075 40.94286486 -9.75 43.0625 C-10.03101563 44.0419458 -10.31203125 45.0213916 -10.6015625 46.03051758 C-11.37738713 48.69487485 -12.18275747 51.3480997 -13 54 C-13.22880859 54.79905762 -13.45761719 55.59811523 -13.69335938 56.42138672 C-15.35480853 61.66286322 -15.35480853 61.66286322 -18.33984375 63.22265625 C-22.88544621 62.84218732 -25.79408632 60.00128757 -29.37890625 57.37109375 C-31.85423132 55.698103 -31.85423132 55.698103 -34.15625 56.5859375 C-35.99478554 57.99600078 -37.43141604 59.43109738 -38.9375 61.1875 C-40.47265625 62.80078125 -40.47265625 62.80078125 -42 64 C-44.875 63.875 -44.875 63.875 -47 63 C-49.04538889 56.04567778 -49.58169634 49.22124213 -50 42 C-50.65355469 41.77570313 -51.30710937 41.55140625 -51.98046875 41.3203125 C-56.01730374 39.55517637 -59.60435908 37.24105239 -63.3125 34.875 C-64.05306641 34.40707031 -64.79363281 33.93914062 -65.55664062 33.45703125 C-67.37341968 32.30835804 -69.18703037 31.15467631 -71 30 C-71 27.75 -71 27.75 -70 25 C-63.86310071 21.54153097 -57.34784853 19.07664711 -50.78125 16.55859375 C-49.72393677 16.14964371 -48.66662354 15.74069366 -47.57727051 15.3193512 C-44.21958974 14.02171483 -40.85982484 12.72957334 -37.5 11.4375 C-35.24335361 10.56610726 -32.98684185 9.69436577 -30.73046875 8.82226562 C-19.91255371 4.64478064 -19.91255371 4.64478064 -15.55053711 2.97946167 C-13.90675259 2.3482127 -12.26658741 1.70741539 -10.63110352 1.05496216 C-6.64596798 -0.51283825 -4.16162312 -1.43055795 0 0 Z " fill="#0E0E0D" transform="translate(478,294)"/>
<path d="M0 0 C0.33 0.33 0.66 0.66 1 1 C0.45485333 12.44808014 -1.00197845 28.16008144 -9 37 C-9.44085938 37.50789063 -9.88171875 38.01578125 -10.3359375 38.5390625 C-13.78043035 41.94549466 -17.20752291 42.91580951 -21.8828125 43.20703125 C-25.20193246 42.88246786 -26.79726346 41.40298532 -29 39 C-32.46252028 33.80621959 -31.86826795 27.05526452 -31 21 C-28.4788849 12.9083328 -24.08738314 6.67220998 -17 2 C-11.7326585 -0.69219676 -5.80597244 -0.42530974 0 0 Z " fill="#F8F8F8" transform="translate(217,247)"/>
<path d="M0 0 C1.26109153 3.78327459 0.4536123 4.36596925 -1 8 C-1.69596094 11.1650371 -2.16634276 14.35541845 -2.625 17.5625 C-2.75616211 18.47837891 -2.88732422 19.39425781 -3.02246094 20.33789062 C-4.46305907 31.27146919 -5.43491569 43.1500157 -3 54 C-2.96175377 56.33301986 -2.95425716 58.66711508 -3 61 C-6.44779086 59.49993609 -8.82360533 57.49590738 -11.5625 54.9375 C-15.14428239 51.65068792 -18.7830077 48.4950668 -22.5625 45.4375 C-27.5093759 41.43489956 -32.28519189 37.27243105 -37 33 C-34.34254236 29.48115954 -31.64926771 26.72261915 -28.1875 24 C-21.57182136 18.69857698 -15.19598305 13.1392694 -8.80664062 7.56884766 C-5.88397627 5.03086912 -2.94286883 2.51449791 0 0 Z " fill="#F7F7F6" transform="translate(84,223)"/>
<path d="M0 0 C1.01147234 3.84075659 0.92319275 6.31500803 -0.1875 10.11328125 C-0.47077148 11.10271729 -0.75404297 12.09215332 -1.04589844 13.11157227 C-1.36075195 14.16787842 -1.67560547 15.22418457 -2 16.3125 C-2.31743164 17.40812256 -2.63486328 18.50374512 -2.96191406 19.63256836 C-3.62933894 21.93156759 -4.30163607 24.2291573 -4.97851562 26.52539062 C-5.97466778 29.9138317 -6.9513439 33.30726669 -7.921875 36.703125 C-8.53072493 38.82306754 -9.14008075 40.94286486 -9.75 43.0625 C-10.03101563 44.0419458 -10.31203125 45.0213916 -10.6015625 46.03051758 C-11.37738713 48.69487485 -12.18275747 51.3480997 -13 54 C-13.22880859 54.79905762 -13.45761719 55.59811523 -13.69335938 56.42138672 C-15.34776831 61.64065301 -15.34776831 61.64065301 -18.26171875 63.24609375 C-22.07999467 62.90293914 -24.7117579 61.15385894 -27.8125 59.0625 C-28.40998047 58.67642578 -29.00746094 58.29035156 -29.62304688 57.89257812 C-31.09065722 56.94156662 -32.5465491 55.972514 -34 55 C-32.625 53 -32.625 53 -31 51 C-30.34 51 -29.68 51 -29 51 C-28.67 50.34 -28.34 49.68 -28 49 C-25.36 50.65 -22.72 52.3 -20 54 C-19.89429688 52.70964844 -19.78859375 51.41929687 -19.6796875 50.08984375 C-19.11263986 45.00332697 -17.75070384 40.399203 -16.125 35.5625 C-15.58149478 33.89861264 -15.03852091 32.23455162 -14.49609375 30.5703125 C-14.23683105 29.78301758 -13.97756836 28.99572266 -13.71044922 28.18457031 C-12.58234309 24.71574089 -11.55877443 21.21783425 -10.54296875 17.71484375 C-10 16 -10 16 -9 14 C-9.54269531 14.48210937 -10.08539063 14.96421875 -10.64453125 15.4609375 C-11.35996094 16.09257812 -12.07539063 16.72421875 -12.8125 17.375 C-13.52019531 18.00148438 -14.22789062 18.62796875 -14.95703125 19.2734375 C-17 21 -17 21 -20 23 C-19.48374042 20.9349617 -18.96808504 18.90135375 -18.3125 16.875 C-18.209375 16.25625 -18.10625 15.6375 -18 15 C-18.66 14.34 -19.32 13.68 -20 13 C-22.64 13.99 -25.28 14.98 -28 16 C-31 11.25 -31 11.25 -31 9 C-26.77895458 7.29166239 -22.54705357 5.61204289 -18.3125 3.9375 C-17.11431641 3.45216797 -15.91613281 2.96683594 -14.68164062 2.46679688 C-13.52470703 2.01240234 -12.36777344 1.55800781 -11.17578125 1.08984375 C-10.11270752 0.66566162 -9.04963379 0.24147949 -7.9543457 -0.19555664 C-4.81645541 -1.04997764 -3.08160099 -0.9192488 0 0 Z " fill="#0C0C0C" transform="translate(478,294)"/>
<path d="M0 0 C1.75 2.0625 1.75 2.0625 3 4 C5.64 3.01 8.28 2.02 11 1 C11 3 11 3 9.671875 4.33984375 C9.03765625 4.86707031 8.4034375 5.39429688 7.75 5.9375 C3.52708944 9.52171412 -0.55156935 13.23641307 -4.61035156 17.00366211 C-6.06423644 18.34595281 -7.53211594 19.67303281 -9 21 C-9.52400391 21.47646973 -10.04800781 21.95293945 -10.58789062 22.44384766 C-14.30970074 25.71253777 -16.0889331 26.22323031 -21 26 C-21.66 26.99 -22.32 27.98 -23 29 C-27.27186525 27.47146065 -30.99326863 25.28490519 -34.8125 22.875 C-35.7087207 22.31619141 -35.7087207 22.31619141 -36.62304688 21.74609375 C-38.08426251 20.8342952 -39.54244585 19.91764024 -41 19 C-41 16.75 -41 16.75 -40 14 C-37.31177865 12.3480019 -34.90092736 11.18796304 -32 10 C-30.40768555 9.32783447 -30.40768555 9.32783447 -28.78320312 8.64208984 C-25.75002216 7.38215956 -22.7075125 6.151599 -19.65332031 4.94360352 C-17.73584607 4.18187728 -15.82515642 3.40452519 -13.9140625 2.62695312 C-12.69976562 2.14548828 -11.48546875 1.66402344 -10.234375 1.16796875 C-9.13319336 0.72735107 -8.03201172 0.2867334 -6.89746094 -0.16723633 C-3.98290754 -1.00491257 -2.73717563 -1.21665203 0 0 Z " fill="#0F0F0F" transform="translate(448,305)"/>
<path d="M0 0 C-1.97904886 8.93399202 -4.71269993 17.57171756 -7.57446289 26.25634766 C-9.06422217 30.82601794 -10.40702741 35.20814043 -11 40 C-15.10881542 38.52659854 -18.5456387 36.52274719 -22.1875 34.125 C-23.23292969 33.44695312 -24.27835937 32.76890625 -25.35546875 32.0703125 C-27.86863047 30.10284469 -28.92307852 28.94666859 -30 26 C-29.41734375 25.47792969 -28.8346875 24.95585937 -28.234375 24.41796875 C-23.38929069 20.06805815 -18.55749602 15.70391922 -13.75 11.3125 C-13.24001465 10.8469873 -12.7300293 10.38147461 -12.20458984 9.90185547 C-9.52013876 7.4385491 -6.90747379 4.9314485 -4.375 2.3125 C-2 0 -2 0 0 0 Z " fill="#F6F6F3" transform="translate(469,308)"/>
<path d="M0 0 C0.495 0.99 0.495 0.99 1 2 C0.56171875 2.37769531 0.1234375 2.75539063 -0.328125 3.14453125 C-5.16918595 7.34602114 -9.91181979 11.64367155 -14.61035156 16.00317383 C-17.98594177 19.12079669 -21.45172141 22.08346241 -25 25 C-29.77609498 23.35821735 -33.79382904 20.73453298 -38 18 C-37 15 -37 15 -35.21142578 14.03417969 C-34.4223584 13.74961914 -33.63329102 13.46505859 -32.8203125 13.171875 C-31.91571289 12.83349609 -31.01111328 12.49511719 -30.07910156 12.14648438 C-29.06299805 11.76814453 -28.04689453 11.38980469 -27 11 C-24.70270228 10.07519212 -22.40856876 9.14249624 -20.1171875 8.203125 C-18.33828125 7.47802734 -18.33828125 7.47802734 -16.5234375 6.73828125 C-15.31945312 6.24714844 -14.11546875 5.75601562 -12.875 5.25 C-11.61980391 4.73825123 -10.36459565 4.22653229 -9.109375 3.71484375 C-6.07279748 2.47685445 -3.03634201 1.23856679 0 0 Z " fill="#EFEFED" transform="translate(458,306)"/>
<path d="M0 0 C3.0625 0.3125 3.0625 0.3125 4.9375 1.4375 C6.59104531 4.19340884 6.45615568 6.16325452 6.0625 9.3125 C4.9375 11.1875 4.9375 11.1875 3.0625 12.3125 C0.0625 12.75 0.0625 12.75 -2.9375 12.3125 C-4.875 10.6875 -4.875 10.6875 -5.9375 8.3125 C-5.64908355 3.50555913 -5.26034464 0.55961113 0 0 Z " fill="#101010" transform="translate(470.9375,85.6875)"/>
<path d="M0 0 C4.49740035 1.31174177 4.49740035 1.31174177 6 3.875 C5.77669287 7.52234979 5.61627165 9.25872835 3 11.875 C-0.5 12.1875 -0.5 12.1875 -4 11.875 C-6.31282587 8.40576119 -6.42478586 6.95294425 -6 2.875 C-4.27343801 -0.09852344 -3.45187057 -0.14382794 0 0 Z " fill="#101010" transform="translate(416,86.125)"/>
<path d="M0 0 C1.8125 1.0625 1.8125 1.0625 3 3 C3.3125 6.5625 3.3125 6.5625 3 10 C1 12 1 12 -2.5 12.3125 C-4.2325 12.1578125 -4.2325 12.1578125 -6 12 C-8.31282587 8.53076119 -8.42478586 7.07794425 -8 3 C-5.90534242 -0.30735407 -3.75951639 -0.56392746 0 0 Z " fill="#0E0E0E" transform="translate(446,86)"/>
<path d="M0 0 C-0.99 3.96 -1.98 7.92 -3 12 C-4.32 11.67 -5.64 11.34 -7 11 C-7 10.01 -7 9.02 -7 8 C-8.32 9.32 -9.64 10.64 -11 12 C-11.66 11.67 -12.32 11.34 -13 11 C-11.21427748 9.16052663 -9.42197551 7.32842259 -7.625 5.5 C-7.11710937 4.97535156 -6.60921875 4.45070313 -6.0859375 3.91015625 C-2.2265625 0 -2.2265625 0 0 0 Z " fill="#E1E0E1" transform="translate(469,308)"/>
<path d="M0 0 C0.33 0.66 0.66 1.32 1 2 C-0.28935919 3.14842923 -1.58156579 4.29366227 -2.875 5.4375 C-3.59429687 6.07558594 -4.31359375 6.71367187 -5.0546875 7.37109375 C-7 9 -7 9 -9 10 C-9.33 8.02 -9.66 6.04 -10 4 C-6.7 2.68 -3.4 1.36 0 0 Z " fill="#DDDCDC" transform="translate(458,306)"/>
<path d="M0 0 C0.66 0.33 1.32 0.66 2 1 C1.195625 1.763125 0.39125 2.52625 -0.4375 3.3125 C-3.16799024 5.79430898 -3.16799024 5.79430898 -4 9 C-7.5625 10.1875 -7.5625 10.1875 -11 11 C-7.33333333 7.33333333 -3.66666667 3.66666667 0 0 Z " fill="#E5E5E5" transform="translate(242,372)"/>
<path d="M0 0 C0.99 0.33 1.98 0.66 3 1 C1.68 3.31 0.36 5.62 -1 8 C-1.99 7.01 -2.98 6.02 -4 5 C-2.68 3.35 -1.36 1.7 0 0 Z " fill="#0D0D0D" transform="translate(107,196)"/>
<path d="M0 0 C0.66 0.33 1.32 0.66 2 1 C0.02 3.31 -1.96 5.62 -4 8 C-5.32 7.67 -6.64 7.34 -8 7 C-5.36 4.69 -2.72 2.38 0 0 Z " fill="#E3E3E3" transform="translate(107,415)"/>
<path d="M0 0 C2.125 0.9375 2.125 0.9375 4 2 C3.01 2.495 3.01 2.495 2 3 C1.67 3.99 1.34 4.98 1 6 C-0.5 4.625 -0.5 4.625 -2 3 C-2 2.34 -2 1.68 -2 1 C-1.34 0.67 -0.68 0.34 0 0 Z " fill="#0B0B0B" transform="translate(346,236)"/>
</svg>
