<?xml version="1.0" encoding="UTF-8"?>
<svg xmlns="http://www.w3.org/2000/svg" xmlns:xlink="http://www.w3.org/1999/xlink" width="24px" height="24px" viewBox="0 0 24 24" version="1.1">
<g id="surface1">
<path style=" stroke:none;fill-rule:nonzero;fill:rgb(0%,0%,0%);fill-opacity:1;" d="M 0.65625 4.492188 C 0.71875 4.492188 0.71875 4.492188 0.777344 4.492188 C 0.914062 4.492188 1.046875 4.492188 1.179688 4.492188 C 1.277344 4.492188 1.375 4.492188 1.46875 4.492188 C 1.738281 4.492188 2.003906 4.492188 2.269531 4.492188 C 2.558594 4.492188 2.84375 4.492188 3.132812 4.492188 C 3.792969 4.488281 4.453125 4.488281 5.113281 4.488281 C 5.441406 4.488281 5.765625 4.488281 6.09375 4.488281 C 7.210938 4.488281 8.328125 4.488281 9.445312 4.488281 C 9.515625 4.488281 9.585938 4.488281 9.65625 4.488281 C 9.691406 4.488281 9.722656 4.488281 9.761719 4.488281 C 9.9375 4.484375 10.113281 4.484375 10.289062 4.484375 C 10.339844 4.484375 10.339844 4.484375 10.394531 4.484375 C 11.53125 4.484375 12.664062 4.484375 13.796875 4.484375 C 14.996094 4.480469 16.195312 4.480469 17.394531 4.480469 C 17.527344 4.480469 17.65625 4.480469 17.789062 4.480469 C 17.820312 4.480469 17.855469 4.480469 17.886719 4.480469 C 18.410156 4.480469 18.929688 4.480469 19.453125 4.480469 C 19.976562 4.476562 20.5 4.476562 21.027344 4.476562 C 21.308594 4.476562 21.59375 4.476562 21.878906 4.476562 C 22.136719 4.476562 22.398438 4.476562 22.660156 4.476562 C 22.753906 4.476562 22.847656 4.476562 22.941406 4.476562 C 23.070312 4.476562 23.195312 4.476562 23.324219 4.476562 C 23.359375 4.476562 23.398438 4.476562 23.4375 4.476562 C 23.609375 4.476562 23.710938 4.492188 23.859375 4.589844 C 24 4.738281 24.007812 4.816406 24.007812 5.019531 C 24.007812 5.066406 24.007812 5.117188 24.007812 5.171875 C 24.007812 5.253906 24.007812 5.253906 24.007812 5.339844 C 24.007812 5.398438 24.007812 5.457031 24.007812 5.515625 C 24.007812 5.679688 24.007812 5.84375 24.007812 6.007812 C 24.007812 6.1875 24.007812 6.363281 24.007812 6.539062 C 24.011719 6.964844 24.011719 7.394531 24.011719 7.820312 C 24.011719 8.019531 24.011719 8.222656 24.011719 8.421875 C 24.011719 9.089844 24.011719 9.757812 24.011719 10.425781 C 24.011719 10.597656 24.015625 10.769531 24.015625 10.945312 C 24.015625 10.988281 24.015625 11.03125 24.015625 11.074219 C 24.015625 11.773438 24.015625 12.46875 24.015625 13.167969 C 24.019531 13.882812 24.019531 14.601562 24.019531 15.316406 C 24.019531 15.71875 24.019531 16.121094 24.019531 16.523438 C 24.023438 16.867188 24.023438 17.207031 24.023438 17.550781 C 24.023438 17.726562 24.023438 17.898438 24.023438 18.074219 C 24.023438 18.265625 24.023438 18.453125 24.023438 18.644531 C 24.023438 18.726562 24.023438 18.726562 24.023438 18.8125 C 24.019531 19.183594 24.019531 19.183594 23.910156 19.367188 C 23.730469 19.523438 23.570312 19.507812 23.34375 19.507812 C 23.300781 19.507812 23.261719 19.507812 23.222656 19.507812 C 23.085938 19.507812 22.953125 19.507812 22.820312 19.507812 C 22.722656 19.507812 22.625 19.507812 22.53125 19.507812 C 22.261719 19.507812 21.996094 19.507812 21.730469 19.507812 C 21.441406 19.507812 21.15625 19.507812 20.867188 19.507812 C 20.207031 19.511719 19.546875 19.511719 18.886719 19.511719 C 18.558594 19.511719 18.234375 19.511719 17.90625 19.511719 C 16.789062 19.511719 15.671875 19.511719 14.554688 19.511719 C 14.484375 19.511719 14.414062 19.511719 14.34375 19.511719 C 14.308594 19.511719 14.277344 19.511719 14.238281 19.511719 C 14.0625 19.515625 13.886719 19.515625 13.710938 19.515625 C 13.660156 19.515625 13.660156 19.515625 13.605469 19.515625 C 12.46875 19.515625 11.335938 19.515625 10.203125 19.515625 C 9.003906 19.519531 7.804688 19.519531 6.605469 19.519531 C 6.472656 19.519531 6.34375 19.519531 6.210938 19.519531 C 6.179688 19.519531 6.144531 19.519531 6.113281 19.519531 C 5.589844 19.519531 5.070312 19.519531 4.546875 19.519531 C 4.023438 19.523438 3.5 19.523438 2.972656 19.523438 C 2.691406 19.523438 2.40625 19.523438 2.121094 19.523438 C 1.863281 19.523438 1.601562 19.523438 1.339844 19.523438 C 1.246094 19.523438 1.152344 19.523438 1.058594 19.523438 C 0.929688 19.523438 0.804688 19.523438 0.675781 19.523438 C 0.640625 19.523438 0.601562 19.523438 0.5625 19.523438 C 0.390625 19.523438 0.289062 19.507812 0.140625 19.410156 C 0 19.261719 -0.0078125 19.183594 -0.0078125 18.980469 C -0.0078125 18.933594 -0.0078125 18.882812 -0.0078125 18.828125 C -0.0078125 18.773438 -0.0078125 18.71875 -0.0078125 18.660156 C -0.0078125 18.574219 -0.0078125 18.574219 -0.0078125 18.484375 C -0.0078125 18.320312 -0.0078125 18.15625 -0.0078125 17.992188 C -0.0078125 17.8125 -0.0078125 17.636719 -0.0078125 17.460938 C -0.0117188 17.035156 -0.0117188 16.605469 -0.0117188 16.179688 C -0.0117188 15.980469 -0.0117188 15.777344 -0.0117188 15.578125 C -0.0117188 14.910156 -0.0117188 14.242188 -0.0117188 13.574219 C -0.0117188 13.402344 -0.015625 13.230469 -0.015625 13.054688 C -0.015625 13.011719 -0.015625 12.96875 -0.015625 12.925781 C -0.015625 12.226562 -0.015625 11.53125 -0.015625 10.832031 C -0.0195312 10.117188 -0.0195312 9.398438 -0.0195312 8.683594 C -0.0195312 8.28125 -0.0195312 7.878906 -0.0195312 7.476562 C -0.0234375 7.132812 -0.0234375 6.792969 -0.0234375 6.449219 C -0.0234375 6.273438 -0.0234375 6.101562 -0.0234375 5.925781 C -0.0234375 5.734375 -0.0234375 5.546875 -0.0234375 5.355469 C -0.0234375 5.300781 -0.0234375 5.246094 -0.0234375 5.1875 C -0.0195312 4.816406 -0.0195312 4.816406 0.0898438 4.632812 C 0.269531 4.476562 0.429688 4.492188 0.65625 4.492188 Z M 1.03125 5.53125 C 1.03125 9.800781 1.03125 14.070312 1.03125 18.46875 C 8.269531 18.46875 15.511719 18.46875 22.96875 18.46875 C 22.96875 14.199219 22.96875 9.929688 22.96875 5.53125 C 15.730469 5.53125 8.488281 5.53125 1.03125 5.53125 Z M 1.03125 5.53125 "/>
<path style=" stroke:none;fill-rule:nonzero;fill:rgb(0%,0%,0%);fill-opacity:1;" d="M 3.1875 6.46875 C 3.40625 6.597656 3.601562 6.757812 3.796875 6.917969 C 3.859375 6.96875 3.921875 7.019531 3.984375 7.066406 C 4.015625 7.09375 4.046875 7.117188 4.078125 7.144531 C 4.21875 7.257812 4.359375 7.367188 4.503906 7.480469 C 4.53125 7.5 4.558594 7.523438 4.585938 7.542969 C 4.664062 7.605469 4.746094 7.671875 4.828125 7.734375 C 5.195312 8.023438 5.5625 8.3125 5.925781 8.601562 C 6.203125 8.824219 6.480469 9.042969 6.761719 9.265625 C 6.925781 9.394531 7.089844 9.523438 7.253906 9.652344 C 7.390625 9.757812 7.527344 9.863281 7.664062 9.972656 C 7.976562 10.214844 8.285156 10.464844 8.597656 10.710938 C 8.875 10.933594 9.152344 11.152344 9.433594 11.375 C 9.597656 11.503906 9.761719 11.632812 9.925781 11.761719 C 10.0625 11.867188 10.195312 11.972656 10.332031 12.078125 C 10.664062 12.335938 10.988281 12.597656 11.3125 12.863281 C 11.519531 13.035156 11.734375 13.199219 11.953125 13.359375 C 12.125 13.277344 12.265625 13.175781 12.414062 13.058594 C 12.441406 13.035156 12.46875 13.015625 12.496094 12.996094 C 12.582031 12.929688 12.664062 12.863281 12.75 12.796875 C 12.804688 12.753906 12.855469 12.714844 12.910156 12.671875 C 13.226562 12.425781 13.535156 12.179688 13.847656 11.929688 C 14.179688 11.664062 14.511719 11.402344 14.847656 11.140625 C 15.15625 10.898438 15.464844 10.652344 15.773438 10.40625 C 16.082031 10.160156 16.390625 9.914062 16.699219 9.671875 C 16.835938 9.566406 16.972656 9.457031 17.109375 9.351562 C 17.273438 9.222656 17.4375 9.09375 17.601562 8.964844 C 17.882812 8.746094 18.164062 8.523438 18.445312 8.296875 C 18.753906 8.050781 19.0625 7.808594 19.371094 7.5625 C 19.453125 7.5 19.535156 7.433594 19.617188 7.371094 C 19.894531 7.152344 20.171875 6.933594 20.449219 6.71875 C 20.476562 6.699219 20.5 6.679688 20.527344 6.660156 C 20.722656 6.507812 20.835938 6.449219 21.089844 6.453125 C 21.261719 6.480469 21.347656 6.578125 21.46875 6.703125 C 21.546875 6.855469 21.546875 7.007812 21.515625 7.171875 C 21.367188 7.460938 21.050781 7.648438 20.796875 7.839844 C 20.617188 7.972656 20.449219 8.109375 20.277344 8.246094 C 19.96875 8.496094 19.65625 8.738281 19.347656 8.984375 C 19.210938 9.089844 19.074219 9.199219 18.9375 9.304688 C 18.773438 9.433594 18.609375 9.5625 18.445312 9.691406 C 18.164062 9.910156 17.882812 10.132812 17.601562 10.359375 C 17.292969 10.605469 16.984375 10.851562 16.675781 11.09375 C 16.539062 11.199219 16.402344 11.308594 16.265625 11.414062 C 16.097656 11.542969 15.933594 11.675781 15.765625 11.804688 C 15.449219 12.054688 15.128906 12.308594 14.8125 12.5625 C 15.136719 12.789062 15.476562 12.980469 15.824219 13.171875 C 15.9375 13.234375 16.050781 13.296875 16.164062 13.359375 C 16.207031 13.382812 16.207031 13.382812 16.25 13.40625 C 16.523438 13.558594 16.792969 13.714844 17.058594 13.871094 C 17.464844 14.109375 17.867188 14.34375 18.273438 14.574219 C 18.75 14.847656 19.226562 15.117188 19.703125 15.394531 C 19.9375 15.53125 20.175781 15.667969 20.410156 15.800781 C 20.523438 15.863281 20.636719 15.925781 20.75 15.992188 C 20.832031 16.035156 20.910156 16.082031 20.992188 16.125 C 21.039062 16.152344 21.085938 16.179688 21.136719 16.207031 C 21.203125 16.242188 21.203125 16.242188 21.265625 16.28125 C 21.390625 16.371094 21.449219 16.453125 21.515625 16.59375 C 21.546875 16.832031 21.542969 16.921875 21.425781 17.128906 C 21.269531 17.261719 21.183594 17.304688 20.980469 17.3125 C 20.835938 17.292969 20.75 17.25 20.625 17.175781 C 20.578125 17.148438 20.535156 17.125 20.488281 17.097656 C 20.441406 17.070312 20.394531 17.042969 20.34375 17.015625 C 20.246094 16.960938 20.152344 16.910156 20.054688 16.859375 C 19.492188 16.546875 18.933594 16.230469 18.382812 15.90625 C 18.023438 15.695312 17.664062 15.488281 17.304688 15.285156 C 16.828125 15.015625 16.355469 14.742188 15.882812 14.46875 C 15.609375 14.3125 15.335938 14.152344 15.058594 13.996094 C 15.027344 13.976562 15 13.960938 14.96875 13.945312 C 14.820312 13.859375 14.671875 13.777344 14.527344 13.691406 C 14.472656 13.664062 14.421875 13.632812 14.367188 13.601562 C 14.296875 13.5625 14.296875 13.5625 14.226562 13.519531 C 14.140625 13.46875 14.054688 13.414062 13.96875 13.359375 C 13.71875 13.359375 13.5625 13.53125 13.382812 13.683594 C 13.316406 13.738281 13.25 13.796875 13.183594 13.851562 C 13.148438 13.878906 13.117188 13.90625 13.082031 13.933594 C 12.9375 14.054688 12.789062 14.167969 12.640625 14.28125 C 12.59375 14.320312 12.546875 14.355469 12.496094 14.394531 C 12.277344 14.558594 12.160156 14.605469 11.890625 14.597656 C 11.675781 14.5625 11.542969 14.449219 11.382812 14.3125 C 11.351562 14.285156 11.316406 14.257812 11.28125 14.230469 C 11.105469 14.085938 10.933594 13.9375 10.761719 13.789062 C 10.726562 13.761719 10.695312 13.734375 10.660156 13.707031 C 10.59375 13.652344 10.53125 13.597656 10.46875 13.542969 C 10.296875 13.390625 10.296875 13.390625 10.078125 13.355469 C 9.90625 13.417969 9.757812 13.5 9.601562 13.597656 C 9.53125 13.640625 9.460938 13.683594 9.390625 13.726562 C 9.351562 13.75 9.3125 13.773438 9.269531 13.796875 C 9.046875 13.929688 8.820312 14.058594 8.59375 14.1875 C 8.453125 14.269531 8.308594 14.347656 8.167969 14.429688 C 8.140625 14.445312 8.109375 14.464844 8.082031 14.480469 C 7.792969 14.644531 7.507812 14.808594 7.21875 14.976562 C 6.796875 15.21875 6.375 15.460938 5.953125 15.703125 C 5.519531 15.949219 5.085938 16.199219 4.65625 16.445312 C 4.605469 16.476562 4.554688 16.503906 4.503906 16.535156 C 4.28125 16.664062 4.058594 16.792969 3.839844 16.929688 C 3.804688 16.949219 3.769531 16.972656 3.730469 16.996094 C 3.667969 17.035156 3.601562 17.074219 3.539062 17.113281 C 3.324219 17.25 3.117188 17.300781 2.859375 17.296875 C 2.6875 17.226562 2.570312 17.136719 2.484375 16.96875 C 2.445312 16.65625 2.445312 16.65625 2.570312 16.460938 C 2.757812 16.25 3.015625 16.125 3.261719 15.992188 C 3.34375 15.945312 3.425781 15.898438 3.507812 15.851562 C 3.59375 15.800781 3.679688 15.753906 3.765625 15.707031 C 4.015625 15.566406 4.261719 15.421875 4.511719 15.28125 C 4.59375 15.234375 4.675781 15.1875 4.757812 15.140625 C 5.175781 14.902344 5.59375 14.660156 6.007812 14.421875 C 6.355469 14.222656 6.699219 14.023438 7.046875 13.824219 C 7.503906 13.566406 7.957031 13.304688 8.40625 13.042969 C 8.453125 13.015625 8.5 12.988281 8.546875 12.960938 C 8.765625 12.835938 8.980469 12.707031 9.1875 12.5625 C 8.75 12.203125 8.308594 11.847656 7.863281 11.5 C 7.726562 11.394531 7.589844 11.285156 7.453125 11.179688 C 7.289062 11.050781 7.125 10.921875 6.960938 10.792969 C 6.648438 10.550781 6.339844 10.300781 6.027344 10.054688 C 5.75 9.832031 5.472656 9.613281 5.191406 9.390625 C 5.027344 9.261719 4.863281 9.132812 4.699219 9.003906 C 4.5625 8.898438 4.425781 8.792969 4.289062 8.683594 C 3.945312 8.414062 3.601562 8.140625 3.257812 7.867188 C 3.15625 7.785156 3.054688 7.703125 2.949219 7.621094 C 2.910156 7.589844 2.867188 7.558594 2.824219 7.523438 C 2.789062 7.496094 2.753906 7.46875 2.714844 7.441406 C 2.550781 7.296875 2.488281 7.210938 2.460938 6.992188 C 2.46875 6.765625 2.5625 6.667969 2.71875 6.515625 C 2.867188 6.441406 3.027344 6.4375 3.1875 6.46875 Z M 3.1875 6.46875 "/>
</g>
</svg>
