<?xml version="1.0" encoding="UTF-8"?>
<svg xmlns="http://www.w3.org/2000/svg" xmlns:xlink="http://www.w3.org/1999/xlink" width="24px" height="24px" viewBox="0 0 24 24" version="1.1">
<g id="surface1">
<rect x="0" y="0" width="24" height="24" style="fill:rgb(99.215686%,99.215686%,99.215686%);fill-opacity:1;stroke:none;"/>
<path style=" stroke:none;fill-rule:nonzero;fill:rgb(3.137255%,3.137255%,3.137255%);fill-opacity:1;" d="M 7.757812 2.679688 L 8.234375 2.679688 C 8.390625 2.679688 8.546875 2.679688 8.703125 2.679688 C 8.875 2.679688 9.042969 2.679688 9.210938 2.679688 C 9.617188 2.675781 10.023438 2.675781 10.433594 2.675781 L 11.007812 2.675781 C 11.8125 2.675781 12.613281 2.671875 13.417969 2.671875 L 13.542969 2.671875 C 14.207031 2.671875 14.875 2.671875 15.539062 2.671875 C 16.222656 2.667969 16.910156 2.667969 17.59375 2.667969 C 17.976562 2.667969 18.359375 2.667969 18.746094 2.667969 C 19.070312 2.664062 19.398438 2.664062 19.726562 2.664062 C 19.890625 2.664062 20.058594 2.664062 20.226562 2.664062 C 20.40625 2.664062 20.589844 2.664062 20.769531 2.664062 L 20.925781 2.664062 C 21.515625 2.667969 22.074219 2.859375 22.492188 3.285156 C 22.785156 3.632812 22.976562 4 22.976562 4.460938 L 22.976562 4.863281 C 22.976562 5.019531 22.976562 5.179688 22.976562 5.339844 L 22.980469 5.679688 C 22.980469 6.023438 22.980469 6.363281 22.980469 6.703125 L 22.980469 7.1875 C 22.984375 7.898438 22.984375 8.609375 22.984375 9.316406 C 22.984375 9.875 22.984375 10.433594 22.988281 10.996094 C 22.988281 11.570312 22.988281 12.144531 22.988281 12.71875 C 22.988281 13.039062 22.988281 13.363281 22.992188 13.683594 C 22.992188 13.988281 22.992188 14.292969 22.992188 14.59375 C 22.992188 14.707031 22.992188 14.816406 22.992188 14.929688 C 22.996094 15.75 22.964844 16.375 22.398438 17.015625 C 22.152344 17.253906 21.859375 17.355469 21.539062 17.460938 L 21.402344 17.507812 C 21.269531 17.511719 21.136719 17.511719 21.003906 17.511719 L 20.882812 17.511719 C 20.746094 17.511719 20.613281 17.511719 20.480469 17.511719 L 20.199219 17.511719 C 19.953125 17.511719 19.707031 17.511719 19.464844 17.511719 C 19.214844 17.511719 18.960938 17.511719 18.710938 17.507812 C 18.222656 17.507812 17.730469 17.507812 17.238281 17.507812 L 17.238281 17.609375 C 17.242188 17.925781 17.246094 18.246094 17.25 18.5625 C 17.25 18.726562 17.25 18.890625 17.253906 19.054688 C 17.253906 19.210938 17.253906 19.371094 17.253906 19.527344 C 17.257812 19.617188 17.257812 19.707031 17.257812 19.792969 C 17.257812 20.394531 17.125 20.871094 16.710938 21.308594 C 16.398438 21.605469 16.003906 21.765625 15.578125 21.765625 L 15.4375 21.769531 L 15.117188 21.769531 C 14.964844 21.769531 14.816406 21.769531 14.664062 21.769531 C 14.503906 21.769531 14.339844 21.769531 14.175781 21.769531 C 13.785156 21.773438 13.390625 21.773438 13 21.773438 L 12.667969 21.773438 C 11.820312 21.773438 10.96875 21.777344 10.121094 21.777344 L 10 21.777344 C 9.359375 21.777344 8.714844 21.777344 8.074219 21.78125 C 7.414062 21.78125 6.753906 21.785156 6.097656 21.785156 C 5.726562 21.785156 5.355469 21.785156 4.984375 21.785156 C 4.667969 21.789062 4.355469 21.789062 4.039062 21.789062 C 3.878906 21.789062 3.71875 21.789062 3.558594 21.789062 C 3.382812 21.789062 3.207031 21.789062 3.03125 21.789062 L 2.878906 21.789062 C 2.398438 21.785156 1.988281 21.636719 1.640625 21.300781 C 1.285156 20.925781 1.105469 20.5 1.109375 19.984375 L 1.105469 19.882812 C 1.105469 19.769531 1.105469 19.660156 1.105469 19.550781 C 1.105469 19.46875 1.105469 19.390625 1.105469 19.308594 C 1.105469 19.09375 1.105469 18.875 1.105469 18.660156 C 1.105469 18.523438 1.105469 18.386719 1.105469 18.253906 C 1.101562 17.78125 1.101562 17.308594 1.101562 16.832031 C 1.101562 16.394531 1.101562 15.953125 1.101562 15.511719 C 1.097656 15.132812 1.097656 14.753906 1.097656 14.375 C 1.097656 14.152344 1.097656 13.925781 1.097656 13.699219 C 1.097656 13.488281 1.097656 13.273438 1.097656 13.0625 C 1.097656 12.984375 1.097656 12.90625 1.097656 12.828125 C 1.09375 12.191406 1.164062 11.683594 1.613281 11.195312 L 1.695312 11.105469 C 1.890625 10.898438 2.105469 10.71875 2.328125 10.542969 C 2.472656 10.425781 2.613281 10.304688 2.753906 10.1875 C 2.929688 10.035156 3.109375 9.886719 3.292969 9.738281 L 3.410156 9.640625 C 3.476562 9.585938 3.542969 9.53125 3.609375 9.476562 C 3.90625 9.238281 4.179688 9.007812 4.386719 8.6875 C 4.933594 7.863281 5.574219 7.199219 6.449219 6.714844 L 6.53125 6.671875 C 6.976562 6.425781 7.429688 6.25 7.925781 6.132812 L 8.03125 6.109375 C 8.398438 6.03125 8.761719 6.027344 9.132812 6.027344 L 9.234375 6.027344 C 9.757812 6.027344 10.242188 6.078125 10.746094 6.222656 L 10.871094 6.253906 C 11.660156 6.449219 12.429688 6.992188 13.03125 7.523438 L 13.128906 7.609375 C 13.636719 8.078125 14.074219 8.714844 14.328125 9.359375 L 14.328125 9.492188 L 14.417969 9.472656 C 14.867188 9.378906 14.867188 9.378906 15.042969 9.402344 C 15.152344 9.476562 15.152344 9.476562 15.222656 9.582031 C 15.207031 9.785156 15.144531 9.9375 15.050781 10.117188 L 14.96875 10.269531 L 14.886719 10.425781 C 14.84375 10.507812 14.800781 10.589844 14.757812 10.671875 L 14.671875 10.832031 C 14.542969 11.078125 14.417969 11.324219 14.300781 11.574219 C 14.234375 11.71875 14.195312 11.773438 14.058594 11.867188 C 13.875 11.855469 13.785156 11.792969 13.660156 11.667969 L 13.558594 11.570312 L 13.453125 11.464844 L 13.339844 11.355469 C 13.265625 11.277344 13.1875 11.203125 13.109375 11.125 C 12.992188 11.007812 12.875 10.890625 12.757812 10.773438 C 12.683594 10.699219 12.609375 10.625 12.535156 10.550781 L 12.425781 10.445312 C 12.183594 10.203125 12.183594 10.203125 12.152344 10.011719 C 12.179688 9.894531 12.179688 9.894531 12.242188 9.8125 C 12.414062 9.738281 12.578125 9.75 12.761719 9.761719 C 12.699219 9.664062 12.636719 9.5625 12.574219 9.464844 L 12.519531 9.378906 C 12.007812 8.574219 11.136719 8.039062 10.214844 7.8125 C 10.007812 7.769531 9.792969 7.75 9.578125 7.738281 C 9.421875 7.726562 9.328125 7.710938 9.199219 7.617188 C 9.132812 7.523438 9.132812 7.523438 9.140625 7.382812 C 9.179688 7.253906 9.179688 7.253906 9.269531 7.164062 C 10.484375 7.128906 11.601562 7.679688 12.476562 8.484375 C 12.859375 8.851562 13.355469 9.398438 13.398438 9.949219 C 13.386719 10.074219 13.386719 10.074219 13.308594 10.160156 C 13.207031 10.207031 13.207031 10.207031 13.03125 10.207031 C 13.21875 10.433594 13.417969 10.648438 13.625 10.855469 L 13.699219 10.925781 C 13.820312 11.054688 13.820312 11.054688 13.96875 11.148438 L 13.984375 11.050781 C 14.015625 10.921875 14.058594 10.824219 14.117188 10.707031 L 14.242188 10.464844 L 14.304688 10.335938 C 14.359375 10.234375 14.410156 10.132812 14.460938 10.03125 L 14.378906 10.035156 C 14.082031 10.050781 14.082031 10.050781 13.972656 9.957031 C 13.917969 9.839844 13.867188 9.722656 13.820312 9.601562 C 13.324219 8.382812 12.40625 7.496094 11.207031 6.972656 C 10.898438 6.84375 10.578125 6.753906 10.253906 6.671875 L 10.164062 6.648438 C 9.84375 6.5625 9.519531 6.5625 9.1875 6.5625 L 9.09375 6.5625 C 7.886719 6.566406 6.78125 7.003906 5.867188 7.792969 L 5.753906 7.882812 C 4.757812 8.730469 4.179688 10.011719 4.066406 11.304688 C 4.023438 11.9375 4.042969 12.792969 4.386719 13.34375 C 4.492188 13.457031 4.492188 13.457031 4.613281 13.558594 L 4.746094 13.675781 C 4.910156 13.816406 5.074219 13.953125 5.242188 14.085938 C 5.390625 14.210938 5.539062 14.335938 5.6875 14.460938 C 5.871094 14.621094 6.054688 14.777344 6.242188 14.929688 C 6.4375 15.089844 6.628906 15.25 6.820312 15.417969 L 6.90625 15.492188 C 7.019531 15.589844 7.132812 15.6875 7.246094 15.785156 C 7.535156 16.039062 7.828125 16.285156 8.125 16.523438 L 8.203125 16.585938 C 8.617188 16.914062 8.972656 16.964844 9.492188 16.925781 C 9.855469 16.84375 10.113281 16.628906 10.386719 16.386719 L 10.546875 16.25 C 10.636719 16.175781 10.722656 16.097656 10.808594 16.023438 C 10.972656 15.878906 11.136719 15.742188 11.304688 15.605469 C 11.503906 15.445312 11.695312 15.277344 11.886719 15.113281 C 12.117188 14.910156 12.351562 14.714844 12.585938 14.523438 C 12.746094 14.394531 12.898438 14.261719 13.050781 14.125 C 13.777344 13.496094 13.777344 13.496094 13.976562 13.375 C 14.101562 13.261719 14.117188 13.144531 14.15625 12.984375 L 14.175781 12.894531 C 14.230469 12.679688 14.269531 12.460938 14.296875 12.242188 C 14.339844 12.101562 14.414062 12.023438 14.507812 11.910156 C 14.570312 11.804688 14.621094 11.695312 14.675781 11.582031 L 14.71875 11.496094 C 14.753906 11.425781 14.785156 11.355469 14.820312 11.285156 L 14.867188 11.285156 C 14.871094 11.734375 14.871094 12.179688 14.820312 12.625 C 15.125 12.382812 15.421875 12.132812 15.71875 11.875 C 15.878906 11.738281 16.042969 11.597656 16.207031 11.460938 C 16.007812 11.191406 15.753906 11 15.492188 10.792969 C 15.4375 10.746094 15.382812 10.699219 15.328125 10.652344 L 15.222656 10.566406 C 15.273438 10.410156 15.324219 10.265625 15.402344 10.121094 C 15.632812 10.1875 15.777344 10.328125 15.953125 10.484375 C 16.136719 10.652344 16.324219 10.8125 16.523438 10.960938 C 16.898438 11.246094 17.050781 11.609375 17.195312 12.042969 C 17.199219 12.113281 17.199219 12.179688 17.199219 12.25 L 17.199219 12.664062 C 17.199219 12.824219 17.199219 12.984375 17.199219 13.144531 L 17.199219 13.480469 C 17.199219 13.742188 17.199219 14.003906 17.195312 14.269531 C 17.195312 14.597656 17.195312 14.925781 17.195312 15.253906 C 17.195312 15.839844 17.195312 16.429688 17.195312 17.015625 C 17.722656 17.011719 18.25 17.011719 18.78125 17.007812 C 19.023438 17.003906 19.269531 17.003906 19.515625 17.003906 C 19.753906 17.003906 19.992188 17 20.226562 17 C 20.316406 16.996094 20.410156 16.996094 20.5 16.996094 C 21.363281 17 21.363281 17 22.089844 16.5625 C 22.207031 16.429688 22.28125 16.285156 22.34375 16.121094 L 22.390625 16.003906 C 22.445312 15.808594 22.445312 15.632812 22.445312 15.429688 C 22.445312 15.367188 22.445312 15.367188 22.445312 15.304688 C 22.445312 15.164062 22.445312 15.023438 22.445312 14.882812 L 22.449219 14.582031 C 22.449219 14.308594 22.449219 14.035156 22.449219 13.761719 C 22.453125 13.476562 22.453125 13.191406 22.453125 12.90625 C 22.457031 12.425781 22.457031 11.949219 22.457031 11.46875 C 22.460938 10.792969 22.460938 10.117188 22.464844 9.4375 C 22.46875 8.171875 22.472656 6.90625 22.476562 5.640625 C 20.542969 5.640625 18.609375 5.636719 16.675781 5.636719 L 16.554688 5.636719 C 15.894531 5.636719 15.238281 5.636719 14.578125 5.636719 C 13.902344 5.632812 13.226562 5.632812 12.554688 5.632812 C 12.136719 5.632812 11.71875 5.632812 11.300781 5.632812 C 11.015625 5.632812 10.730469 5.632812 10.445312 5.632812 C 10.28125 5.632812 10.117188 5.632812 9.949219 5.632812 C 9.773438 5.628906 9.59375 5.628906 9.414062 5.632812 L 9.257812 5.628906 C 9.019531 5.632812 8.820312 5.636719 8.597656 5.730469 C 8.488281 5.75 8.488281 5.75 8.382812 5.757812 L 8.15625 5.78125 L 8.035156 5.792969 C 7.9375 5.804688 7.84375 5.8125 7.746094 5.820312 C 8.234375 5.207031 8.234375 5.207031 8.597656 5.117188 C 8.746094 5.105469 8.894531 5.101562 9.046875 5.105469 L 9.222656 5.105469 C 9.382812 5.105469 9.539062 5.105469 9.699219 5.109375 C 9.871094 5.109375 10.042969 5.109375 10.214844 5.109375 C 10.511719 5.109375 10.808594 5.109375 11.105469 5.113281 C 11.535156 5.113281 11.964844 5.113281 12.394531 5.117188 C 13.089844 5.117188 13.789062 5.117188 14.484375 5.121094 C 15.160156 5.125 15.835938 5.128906 16.515625 5.128906 L 16.640625 5.128906 L 17.269531 5.132812 C 19.003906 5.136719 20.742188 5.140625 22.476562 5.148438 C 22.472656 5.011719 22.464844 4.875 22.460938 4.738281 L 22.457031 4.621094 C 22.441406 4.347656 22.40625 4.128906 22.253906 3.894531 L 22.195312 3.800781 C 21.996094 3.496094 21.714844 3.339844 21.367188 3.242188 C 21.152344 3.203125 20.933594 3.210938 20.71875 3.210938 L 20.550781 3.210938 C 20.394531 3.210938 20.242188 3.210938 20.089844 3.210938 C 19.921875 3.210938 19.757812 3.210938 19.589844 3.210938 C 19.265625 3.210938 18.941406 3.207031 18.617188 3.207031 C 18.351562 3.207031 18.089844 3.207031 17.824219 3.207031 C 16.996094 3.207031 16.164062 3.207031 15.335938 3.207031 C 14.679688 3.207031 14.023438 3.207031 13.371094 3.207031 C 12.699219 3.203125 12.023438 3.203125 11.351562 3.203125 C 10.976562 3.203125 10.597656 3.203125 10.21875 3.203125 C 9.898438 3.203125 9.578125 3.203125 9.257812 3.203125 C 9.09375 3.203125 8.929688 3.203125 8.765625 3.203125 C 8.585938 3.199219 8.410156 3.199219 8.230469 3.203125 L 8.074219 3.199219 C 7.589844 3.203125 7.199219 3.324219 6.84375 3.664062 C 6.648438 3.894531 6.535156 4.160156 6.527344 4.460938 L 6.527344 4.589844 L 6.523438 4.726562 L 6.519531 4.867188 C 6.515625 5.015625 6.515625 5.164062 6.511719 5.3125 L 6.507812 5.617188 C 6.5 5.863281 6.496094 6.109375 6.492188 6.359375 C 6.3125 6.433594 6.136719 6.511719 5.957031 6.582031 C 5.949219 6.273438 5.949219 5.964844 5.945312 5.65625 C 5.945312 5.554688 5.941406 5.449219 5.941406 5.34375 C 5.921875 3.953125 5.921875 3.953125 6.402344 3.359375 L 6.46875 3.273438 C 6.777344 2.925781 7.292969 2.679688 7.757812 2.679688 "/>
<path style=" stroke:none;fill-rule:nonzero;fill:rgb(99.215686%,99.215686%,99.215686%);fill-opacity:1;" d="M 11.058594 16.476562 C 11.320312 16.660156 11.550781 16.863281 11.785156 17.078125 C 11.941406 17.222656 12.105469 17.355469 12.269531 17.488281 C 12.511719 17.6875 12.75 17.898438 12.988281 18.105469 C 13.121094 18.222656 13.257812 18.335938 13.390625 18.449219 L 13.625 18.648438 C 13.753906 18.761719 13.882812 18.875 14.015625 18.984375 L 14.09375 19.050781 C 14.222656 19.164062 14.355469 19.277344 14.488281 19.390625 C 14.761719 19.625 15.039062 19.863281 15.316406 20.097656 C 15.449219 20.207031 15.578125 20.320312 15.707031 20.429688 L 15.792969 20.503906 C 15.847656 20.550781 15.90625 20.597656 15.960938 20.648438 C 16.070312 20.742188 16.175781 20.828125 16.296875 20.910156 C 16.246094 21.074219 16.210938 21.085938 16.0625 21.164062 C 15.789062 21.292969 15.546875 21.300781 15.25 21.296875 L 15.085938 21.296875 C 14.9375 21.300781 14.785156 21.300781 14.636719 21.296875 C 14.472656 21.296875 14.3125 21.300781 14.152344 21.300781 C 13.832031 21.300781 13.515625 21.300781 13.199219 21.300781 C 12.941406 21.300781 12.683594 21.300781 12.425781 21.300781 L 12.09375 21.300781 C 11.394531 21.300781 10.695312 21.300781 9.996094 21.300781 C 9.398438 21.300781 8.796875 21.300781 8.199219 21.300781 C 7.425781 21.304688 6.65625 21.304688 5.886719 21.304688 L 5.773438 21.304688 C 5.519531 21.300781 5.261719 21.304688 5.003906 21.304688 C 4.691406 21.304688 4.375 21.304688 4.0625 21.304688 C 3.902344 21.304688 3.742188 21.300781 3.582031 21.304688 C 3.410156 21.304688 3.238281 21.304688 3.0625 21.300781 L 2.910156 21.304688 C 2.5625 21.300781 2.339844 21.207031 2.058594 21 C 2.113281 20.839844 2.167969 20.804688 2.304688 20.703125 C 2.464844 20.578125 2.621094 20.449219 2.773438 20.308594 C 2.964844 20.136719 3.160156 19.972656 3.359375 19.8125 C 3.589844 19.621094 3.8125 19.425781 4.039062 19.234375 C 4.171875 19.121094 4.300781 19.007812 4.433594 18.894531 L 4.589844 18.761719 L 4.902344 18.492188 L 5.136719 18.292969 C 5.269531 18.179688 5.402344 18.0625 5.535156 17.949219 C 5.773438 17.746094 6.011719 17.539062 6.257812 17.34375 C 6.417969 17.210938 6.574219 17.078125 6.730469 16.9375 L 6.839844 16.835938 C 6.902344 16.78125 6.960938 16.726562 7.023438 16.667969 C 7.089844 16.605469 7.089844 16.605469 7.207031 16.523438 C 7.390625 16.535156 7.5 16.648438 7.632812 16.761719 L 7.757812 16.867188 L 7.878906 16.96875 C 8.007812 17.078125 8.128906 17.171875 8.28125 17.246094 L 8.367188 17.285156 C 8.8125 17.480469 9.386719 17.503906 9.855469 17.34375 C 9.929688 17.3125 10.003906 17.277344 10.074219 17.238281 L 10.191406 17.179688 C 10.414062 17.054688 10.59375 16.914062 10.765625 16.730469 C 10.855469 16.636719 10.957031 16.554688 11.058594 16.476562 M 1.746094 11.867188 C 1.898438 11.933594 2.015625 12.023438 2.144531 12.128906 L 2.273438 12.238281 C 2.457031 12.390625 2.632812 12.542969 2.8125 12.695312 C 2.96875 12.832031 3.128906 12.964844 3.292969 13.097656 C 3.507812 13.273438 3.71875 13.453125 3.929688 13.636719 C 4.09375 13.777344 4.257812 13.914062 4.425781 14.046875 C 4.605469 14.195312 4.78125 14.351562 4.957031 14.507812 C 5.105469 14.636719 5.261719 14.761719 5.417969 14.890625 C 5.59375 15.035156 5.769531 15.1875 5.945312 15.335938 C 6.148438 15.511719 6.359375 15.683594 6.570312 15.855469 C 6.667969 15.9375 6.761719 16.027344 6.851562 16.121094 C 6.78125 16.3125 6.632812 16.417969 6.480469 16.542969 L 6.308594 16.6875 L 6.222656 16.761719 C 6.109375 16.855469 6 16.949219 5.890625 17.046875 C 5.679688 17.226562 5.46875 17.40625 5.25 17.582031 C 5.054688 17.742188 4.867188 17.910156 4.679688 18.078125 C 4.566406 18.179688 4.453125 18.273438 4.335938 18.371094 C 4.046875 18.601562 3.769531 18.847656 3.488281 19.089844 C 3.355469 19.207031 3.222656 19.320312 3.085938 19.4375 L 3.007812 19.5 L 2.777344 19.703125 C 2.28125 20.125 2.28125 20.125 1.792969 20.550781 C 1.660156 20.355469 1.648438 20.234375 1.652344 20.003906 L 1.652344 19.902344 C 1.648438 19.789062 1.648438 19.675781 1.648438 19.5625 L 1.648438 19.316406 C 1.648438 19.09375 1.648438 18.875 1.648438 18.652344 C 1.648438 18.46875 1.648438 18.285156 1.648438 18.097656 C 1.648438 17.664062 1.648438 17.226562 1.648438 16.792969 C 1.648438 16.34375 1.648438 15.894531 1.648438 15.445312 C 1.648438 15.058594 1.644531 14.671875 1.644531 14.285156 C 1.648438 14.054688 1.644531 13.824219 1.644531 13.59375 C 1.644531 13.378906 1.644531 13.160156 1.644531 12.945312 C 1.644531 12.863281 1.644531 12.785156 1.644531 12.707031 C 1.644531 12.597656 1.644531 12.488281 1.644531 12.378906 L 1.644531 12.285156 C 1.644531 12.121094 1.65625 12.003906 1.746094 11.867188 M 16.523438 11.867188 L 16.613281 11.867188 C 16.691406 12.074219 16.714844 12.257812 16.710938 12.476562 L 16.714844 12.578125 C 16.714844 12.691406 16.714844 12.800781 16.714844 12.914062 L 16.714844 13.15625 C 16.714844 13.371094 16.714844 13.589844 16.714844 13.808594 C 16.714844 14.035156 16.714844 14.265625 16.714844 14.492188 C 16.714844 14.875 16.714844 15.261719 16.714844 15.644531 C 16.710938 16.085938 16.710938 16.527344 16.714844 16.972656 C 16.714844 17.351562 16.714844 17.734375 16.714844 18.113281 C 16.714844 18.339844 16.714844 18.566406 16.714844 18.796875 C 16.714844 19.007812 16.714844 19.222656 16.714844 19.4375 C 16.714844 19.515625 16.714844 19.59375 16.714844 19.671875 C 16.714844 19.777344 16.714844 19.886719 16.710938 19.992188 L 16.714844 20.085938 C 16.710938 20.261719 16.6875 20.394531 16.613281 20.550781 C 16.351562 20.371094 16.121094 20.164062 15.890625 19.953125 C 15.726562 19.804688 15.554688 19.667969 15.386719 19.527344 C 15.277344 19.441406 15.171875 19.347656 15.066406 19.253906 C 14.925781 19.128906 14.78125 19.003906 14.636719 18.886719 C 14.347656 18.652344 14.070312 18.410156 13.789062 18.164062 C 12.800781 17.296875 12.800781 17.296875 11.78125 16.464844 L 11.65625 16.367188 C 11.617188 16.339844 11.582031 16.3125 11.542969 16.28125 L 11.460938 16.207031 L 11.460938 16.121094 C 11.527344 16.058594 11.597656 16 11.667969 15.945312 C 11.871094 15.785156 12.070312 15.617188 12.269531 15.449219 C 12.492188 15.253906 12.71875 15.066406 12.949219 14.882812 C 13.125 14.734375 13.296875 14.585938 13.46875 14.4375 C 13.625 14.300781 13.785156 14.171875 13.945312 14.039062 C 14.144531 13.878906 14.335938 13.710938 14.53125 13.542969 C 14.761719 13.34375 14.996094 13.148438 15.234375 12.953125 C 15.40625 12.808594 15.578125 12.660156 15.75 12.511719 C 15.960938 12.332031 16.171875 12.15625 16.386719 11.984375 C 16.472656 11.917969 16.472656 11.917969 16.523438 11.867188 "/>
<path style=" stroke:none;fill-rule:nonzero;fill:rgb(2.745098%,2.745098%,2.745098%);fill-opacity:1;" d="M 11.097656 9.585938 C 11.570312 9.992188 11.867188 10.496094 12 11.105469 C 12.039062 11.816406 11.972656 12.492188 11.523438 13.082031 C 11.261719 13.363281 10.894531 13.542969 10.511719 13.582031 C 10.011719 13.589844 10.011719 13.589844 9.804688 13.386719 C 9.710938 13.253906 9.714844 13.148438 9.714844 12.984375 L 9.652344 13.046875 C 9.273438 13.382812 8.984375 13.585938 8.464844 13.578125 C 8.222656 13.558594 8.058594 13.480469 7.890625 13.304688 C 7.578125 12.910156 7.578125 12.484375 7.613281 12 C 7.683594 11.496094 8.03125 11.058594 8.417969 10.746094 C 8.902344 10.449219 9.402344 10.347656 9.957031 10.472656 C 10.132812 10.515625 10.304688 10.5625 10.476562 10.613281 C 10.53125 10.769531 10.515625 10.886719 10.488281 11.046875 L 10.464844 11.199219 L 10.4375 11.355469 C 10.328125 12.007812 10.328125 12.007812 10.292969 12.667969 L 10.292969 12.789062 C 10.292969 12.902344 10.292969 12.902344 10.34375 13.03125 C 10.679688 12.960938 10.90625 12.867188 11.113281 12.578125 C 11.386719 12.136719 11.441406 11.625 11.339844 11.117188 L 11.285156 10.96875 L 11.25 10.867188 C 11.097656 10.441406 10.835938 10.070312 10.433594 9.851562 C 10.226562 9.765625 10.019531 9.695312 9.804688 9.625 L 9.671875 9.582031 C 8.914062 9.535156 8.230469 9.671875 7.640625 10.179688 C 7.089844 10.703125 6.855469 11.359375 6.839844 12.109375 C 6.835938 12.722656 6.964844 13.328125 7.402344 13.792969 C 8.066406 14.375 8.816406 14.429688 9.664062 14.386719 C 9.914062 14.363281 10.125 14.292969 10.351562 14.199219 C 10.480469 14.148438 10.5625 14.128906 10.703125 14.148438 C 10.820312 14.328125 10.796875 14.429688 10.792969 14.640625 C 10 15.035156 9.039062 15.140625 8.191406 14.882812 C 7.675781 14.707031 7.222656 14.460938 6.851562 14.058594 C 6.820312 14.027344 6.792969 14 6.761719 13.964844 C 6.246094 13.359375 6.132812 12.605469 6.171875 11.835938 C 6.238281 10.980469 6.695312 10.28125 7.308594 9.714844 C 8.359375 8.832031 9.992188 8.773438 11.097656 9.585938 "/>
<path style=" stroke:none;fill-rule:nonzero;fill:rgb(5.490196%,5.490196%,5.098039%);fill-opacity:1;" d="M 21.402344 13.164062 C 21.449219 13.335938 21.445312 13.445312 21.394531 13.617188 L 21.355469 13.75 L 21.3125 13.894531 L 21.269531 14.042969 C 21.242188 14.144531 21.210938 14.25 21.179688 14.351562 C 21.136719 14.503906 21.089844 14.65625 21.046875 14.808594 L 20.964844 15.09375 L 20.929688 15.226562 C 20.894531 15.34375 20.859375 15.464844 20.820312 15.582031 L 20.789062 15.691406 C 20.714844 15.925781 20.714844 15.925781 20.582031 15.996094 C 20.378906 15.976562 20.246094 15.851562 20.085938 15.734375 C 19.976562 15.65625 19.976562 15.65625 19.875 15.699219 C 19.792969 15.761719 19.726562 15.824219 19.660156 15.902344 C 19.589844 15.976562 19.589844 15.976562 19.523438 16.03125 C 19.394531 16.023438 19.394531 16.023438 19.296875 15.984375 C 19.207031 15.671875 19.183594 15.367188 19.164062 15.042969 L 19.074219 15.015625 C 18.894531 14.933594 18.734375 14.832031 18.566406 14.726562 L 18.46875 14.664062 C 18.386719 14.609375 18.304688 14.558594 18.222656 14.507812 C 18.222656 14.40625 18.222656 14.40625 18.269531 14.285156 C 18.542969 14.128906 18.835938 14.019531 19.128906 13.90625 L 19.273438 13.851562 C 19.421875 13.792969 19.574219 13.734375 19.722656 13.675781 C 19.824219 13.636719 19.925781 13.597656 20.027344 13.558594 C 20.511719 13.371094 20.511719 13.371094 20.707031 13.296875 C 20.78125 13.269531 20.855469 13.242188 20.925781 13.210938 C 21.105469 13.140625 21.214844 13.101562 21.402344 13.164062 "/>
<path style=" stroke:none;fill-rule:nonzero;fill:rgb(97.254902%,97.254902%,97.254902%);fill-opacity:1;" d="M 9.714844 11.058594 L 9.761719 11.105469 C 9.738281 11.617188 9.671875 12.320312 9.3125 12.714844 L 9.253906 12.785156 C 9.097656 12.9375 8.945312 12.980469 8.738281 12.996094 C 8.589844 12.980469 8.515625 12.914062 8.417969 12.804688 C 8.261719 12.574219 8.289062 12.269531 8.328125 12 C 8.441406 11.636719 8.636719 11.359375 8.957031 11.148438 C 9.191406 11.027344 9.457031 11.039062 9.714844 11.058594 "/>
<path style=" stroke:none;fill-rule:nonzero;fill:rgb(96.862745%,96.862745%,96.470588%);fill-opacity:1;" d="M 3.761719 9.984375 C 3.816406 10.15625 3.78125 10.179688 3.714844 10.34375 C 3.683594 10.484375 3.664062 10.628906 3.644531 10.769531 L 3.625 10.894531 C 3.5625 11.386719 3.519531 11.917969 3.625 12.402344 C 3.628906 12.507812 3.628906 12.613281 3.625 12.714844 C 3.472656 12.648438 3.367188 12.558594 3.242188 12.445312 C 3.082031 12.296875 2.917969 12.15625 2.75 12.019531 C 2.53125 11.839844 2.316406 11.652344 2.105469 11.460938 C 2.222656 11.304688 2.34375 11.179688 2.5 11.058594 C 2.796875 10.824219 3.082031 10.574219 3.367188 10.324219 C 3.496094 10.210938 3.628906 10.097656 3.761719 9.984375 "/>
<path style=" stroke:none;fill-rule:nonzero;fill:rgb(4.705882%,4.705882%,4.705882%);fill-opacity:1;" d="M 21.402344 13.164062 C 21.449219 13.335938 21.445312 13.445312 21.394531 13.617188 L 21.355469 13.75 L 21.3125 13.894531 L 21.269531 14.042969 C 21.242188 14.144531 21.210938 14.25 21.179688 14.351562 C 21.136719 14.503906 21.089844 14.65625 21.046875 14.808594 L 20.964844 15.09375 L 20.929688 15.226562 C 20.894531 15.34375 20.859375 15.464844 20.820312 15.582031 L 20.789062 15.691406 C 20.714844 15.925781 20.714844 15.925781 20.585938 15.996094 C 20.414062 15.980469 20.296875 15.902344 20.15625 15.808594 L 20.078125 15.757812 C 20.011719 15.714844 19.945312 15.671875 19.878906 15.625 C 19.941406 15.539062 19.941406 15.539062 20.015625 15.449219 L 20.105469 15.449219 L 20.148438 15.359375 L 20.507812 15.582031 L 20.523438 15.40625 C 20.546875 15.179688 20.609375 14.972656 20.679688 14.757812 L 20.753906 14.53125 L 20.789062 14.425781 C 20.839844 14.269531 20.886719 14.113281 20.929688 13.957031 C 20.957031 13.878906 20.957031 13.878906 21 13.792969 L 20.925781 13.855469 C 20.894531 13.882812 20.863281 13.914062 20.828125 13.941406 L 20.734375 14.027344 C 20.640625 14.105469 20.640625 14.105469 20.507812 14.195312 C 20.53125 14.101562 20.554688 14.011719 20.582031 13.917969 L 20.597656 13.835938 L 20.507812 13.746094 L 20.148438 13.878906 C 20.015625 13.667969 20.015625 13.667969 20.015625 13.566406 C 20.203125 13.492188 20.394531 13.414062 20.582031 13.339844 L 20.746094 13.273438 L 20.902344 13.214844 L 21.046875 13.15625 C 21.1875 13.117188 21.265625 13.121094 21.402344 13.164062 "/>
<path style=" stroke:none;fill-rule:nonzero;fill:rgb(5.882353%,5.882353%,5.882353%);fill-opacity:1;" d="M 20.058594 13.65625 C 20.136719 13.75 20.136719 13.75 20.195312 13.835938 L 20.550781 13.703125 C 20.550781 13.792969 20.550781 13.792969 20.492188 13.851562 L 20.40625 13.921875 C 20.21875 14.082031 20.035156 14.25 19.851562 14.417969 C 19.789062 14.476562 19.722656 14.539062 19.65625 14.597656 L 19.585938 14.660156 C 19.417969 14.808594 19.339844 14.832031 19.121094 14.820312 L 19.03125 14.957031 C 18.839844 14.886719 18.671875 14.789062 18.5 14.679688 L 18.417969 14.628906 C 18.355469 14.589844 18.289062 14.546875 18.222656 14.507812 C 18.222656 14.40625 18.222656 14.40625 18.269531 14.285156 C 18.390625 14.210938 18.496094 14.15625 18.625 14.105469 L 18.769531 14.042969 C 18.90625 13.988281 19.042969 13.933594 19.179688 13.878906 C 19.265625 13.84375 19.351562 13.808594 19.4375 13.773438 L 19.601562 13.710938 L 19.75 13.648438 C 19.882812 13.613281 19.9375 13.601562 20.058594 13.65625 "/>
<path style=" stroke:none;fill-rule:nonzero;fill:rgb(96.470588%,96.470588%,95.294118%);fill-opacity:1;" d="M 21 13.792969 C 20.910156 14.191406 20.789062 14.578125 20.660156 14.964844 C 20.59375 15.171875 20.535156 15.367188 20.507812 15.582031 C 20.324219 15.515625 20.167969 15.425781 20.007812 15.320312 L 19.863281 15.226562 C 19.753906 15.140625 19.703125 15.085938 19.65625 14.957031 L 19.734375 14.882812 C 19.976562 14.667969 20.214844 14.453125 20.453125 14.234375 C 20.574219 14.125 20.691406 14.011719 20.804688 13.894531 C 20.910156 13.792969 20.910156 13.792969 21 13.792969 "/>
<path style=" stroke:none;fill-rule:nonzero;fill:rgb(93.725491%,93.725491%,92.941177%);fill-opacity:1;" d="M 20.507812 13.703125 L 20.550781 13.792969 L 20.492188 13.84375 C 20.277344 14.03125 20.0625 14.222656 19.851562 14.417969 C 19.703125 14.558594 19.546875 14.691406 19.386719 14.820312 C 19.175781 14.746094 18.996094 14.628906 18.804688 14.507812 C 18.851562 14.375 18.851562 14.375 18.929688 14.328125 L 19.039062 14.292969 L 19.160156 14.246094 L 19.296875 14.195312 C 19.402344 14.152344 19.503906 14.109375 19.605469 14.070312 L 19.769531 14.003906 C 19.820312 13.980469 19.875 13.960938 19.929688 13.9375 Z M 20.507812 13.703125 "/>
<path style=" stroke:none;fill-rule:nonzero;fill:rgb(6.27451%,6.27451%,6.27451%);fill-opacity:1;" d="M 21.085938 3.835938 C 21.222656 3.851562 21.222656 3.851562 21.308594 3.902344 C 21.382812 4.023438 21.375 4.113281 21.359375 4.253906 C 21.308594 4.335938 21.308594 4.335938 21.222656 4.386719 C 21.089844 4.40625 21.089844 4.40625 20.957031 4.386719 C 20.867188 4.316406 20.867188 4.316406 20.820312 4.207031 C 20.832031 3.992188 20.851562 3.863281 21.085938 3.835938 M 18.625 3.855469 C 18.828125 3.914062 18.828125 3.914062 18.894531 4.03125 C 18.886719 4.191406 18.878906 4.269531 18.761719 4.386719 C 18.605469 4.402344 18.605469 4.402344 18.449219 4.386719 C 18.34375 4.234375 18.339844 4.167969 18.359375 3.984375 C 18.433594 3.851562 18.472656 3.851562 18.625 3.855469 "/>
<path style=" stroke:none;fill-rule:nonzero;fill:rgb(5.490196%,5.490196%,5.490196%);fill-opacity:1;" d="M 19.96875 3.851562 C 20.050781 3.898438 20.050781 3.898438 20.105469 3.984375 C 20.117188 4.144531 20.117188 4.144531 20.105469 4.296875 C 20.015625 4.386719 20.015625 4.386719 19.859375 4.402344 L 19.703125 4.386719 C 19.597656 4.234375 19.59375 4.167969 19.613281 3.984375 C 19.707031 3.835938 19.800781 3.824219 19.96875 3.851562 "/>
<path style=" stroke:none;fill-rule:nonzero;fill:rgb(88.235295%,87.843138%,88.235295%);fill-opacity:1;" d="M 21 13.792969 L 20.867188 14.328125 L 20.6875 14.285156 L 20.6875 14.148438 L 20.507812 14.328125 L 20.417969 14.285156 C 20.496094 14.203125 20.578125 14.121094 20.660156 14.039062 L 20.726562 13.964844 C 20.898438 13.792969 20.898438 13.792969 21 13.792969 "/>
<path style=" stroke:none;fill-rule:nonzero;fill:rgb(86.666667%,86.274511%,86.274511%);fill-opacity:1;" d="M 20.507812 13.703125 L 20.550781 13.792969 C 20.496094 13.84375 20.4375 13.894531 20.378906 13.945312 L 20.28125 14.03125 C 20.195312 14.105469 20.195312 14.105469 20.105469 14.148438 L 20.058594 13.878906 Z M 20.507812 13.703125 "/>
<path style=" stroke:none;fill-rule:nonzero;fill:rgb(89.803922%,89.803922%,89.803922%);fill-opacity:1;" d="M 10.835938 16.65625 L 10.925781 16.703125 L 10.816406 16.804688 C 10.695312 16.917969 10.695312 16.917969 10.65625 17.058594 C 10.496094 17.113281 10.496094 17.113281 10.34375 17.148438 Z M 10.835938 16.65625 "/>
<path style=" stroke:none;fill-rule:nonzero;fill:rgb(5.098039%,5.098039%,5.098039%);fill-opacity:1;" d="M 4.792969 8.777344 L 4.925781 8.820312 L 4.746094 9.132812 L 4.613281 9 Z M 4.792969 8.777344 "/>
<path style=" stroke:none;fill-rule:nonzero;fill:rgb(89.019608%,89.019608%,89.019608%);fill-opacity:1;" d="M 4.792969 18.582031 L 4.878906 18.625 L 4.613281 18.941406 L 4.433594 18.894531 Z M 4.792969 18.582031 "/>
<path style=" stroke:none;fill-rule:nonzero;fill:rgb(4.313726%,4.313726%,4.313726%);fill-opacity:1;" d="M 15.492188 10.566406 C 15.585938 10.609375 15.585938 10.609375 15.671875 10.65625 L 15.582031 10.703125 L 15.539062 10.835938 C 15.46875 10.773438 15.46875 10.773438 15.402344 10.703125 L 15.402344 10.613281 Z M 15.492188 10.566406 "/>
</g>
</svg>
